<?xml version="1.0" encoding="UTF-8"?>
<svg id="Camada_2" data-name="Camada 2" xmlns="http://www.w3.org/2000/svg" viewBox="0 0 645.13 234.63">
  <defs>
    <style>
      .cls-1 {
        fill: #fff;
      }

      .cls-1, .cls-2 {
        stroke-width: 0px;
      }

      .cls-2 {
        fill: none;
      }
    </style>
  </defs>
  <g id="Camada_1-2" data-name="Camada 1">
    <g>
      <g>
        <polygon class="cls-1" points="368.02 22.87 369.53 21.41 369.34 19.95 367.87 18.58 368.08 17.14 368.26 15.68 367.45 14.37 367.28 12.98 368.25 11.11 366.5 10.3 366.16 8.8 364.62 8.44 363.92 6.38 362.22 7.31 361.09 8.22 359.7 8.32 357.68 8.03 356.68 9.21 356.63 11.16 355.39 11.98 354.85 13.37 353.9 14.45 352.58 15.31 351.78 16.51 350.73 17.58 351.4 19.62 350.27 20.64 349.53 21.87 349.29 23.36 348.83 24.73 346.42 25.16 345.75 26.44 346.9 28.58 344.97 29.28 344.17 30.51 344.83 32.37 343.91 33.54 342.83 34.65 342.29 35.99 342.97 37.84 340.77 38.51 340.22 39.85 341.07 41.74 339.26 42.59 338.63 43.9 339.55 45.8 339.08 47.16 338.79 48.59 337.14 49.53 337.54 51.21 336.04 52.21 336.63 53.94 336.32 55.36 335.13 56.48 333.96 57.62 333.19 58.9 332.85 60.31 333.49 62.02 333.13 63.42 332.48 64.73 331.43 65.93 331.67 67.38 330.75 66.12 331.86 64.55 331.9 63.07 331.86 61.6 330.63 60.31 329.64 58.99 331.29 57.26 330.81 55.87 329.83 54.56 330.58 52.95 330.31 51.52 329.71 50.15 328.68 48.87 329.54 47.22 328.97 45.85 328.22 44.51 326.74 43.35 326.73 41.87 326.53 40.43 327.74 38.66 327.23 37.28 326.38 35.98 325.87 34.6 324.93 33.34 324.85 31.85 324.2 30.52 324.83 28.82 323.27 27.76 322.52 26.48 322.63 24.92 322.11 23.56 322.41 21.91 321.21 20.8 321.07 19.3 320.78 17.83 318.97 17.05 318.68 15.6 318.22 14.22 317.46 13 316.18 12.17 316.67 9.87 315.23 9.11 313.47 9.25 312.25 8.88 311.13 9.31 309.81 9.68 307.95 9.62 307.07 10.81 307.26 12.92 305.24 13 304.78 14.43 303.28 15.08 303.13 16.98 305.25 16.26 305.24 17.69 304.85 19.06 304.77 20.45 304.04 21.73 304.09 23.15 304.57 24.69 303.2 25.78 304.41 27.54 302.75 28.54 302.26 29.86 302.86 31.46 301.89 32.65 300.74 33.82 301.04 35.33 302.07 36.98 300.9 38.22 300.37 39.59 299.83 40.95 299.38 42.34 300.79 44.03 298.71 45.15 299.52 46.74 299.42 48.18 299.19 49.59 299.51 51.08 299.2 52.48 297.39 53.68 297.38 55.13 298.35 56.71 298.32 58.16 297.89 59.55 297.29 60.92 298.25 62.49 297.44 63.83 296.86 65.22 296.6 66.64 296.46 68.07 296.01 69.47 296.24 70.95 295.6 72.34 296.56 73.88 295.3 75.21 295.9 76.71 295.6 78.13 294.94 79.53 294.99 80.98 296.16 82.51 294.38 83.84 295.84 85.36 295.47 86.78 295.9 88.24 295.37 89.66 295.62 91.1 294.41 92.51 295.38 93.97 294.93 95.39 294.9 96.82 294.03 98.44 295.11 99.89 296.3 100.88 297.27 101.71 298.65 102.79 299.81 101.66 300.35 100.56 302.26 99.89 301.68 98.26 302.72 96.95 302.03 95.48 302.42 94.07 301.98 92.63 301.3 91.18 301.94 89.74 301.23 88.28 301.93 86.85 303.19 85.46 301.82 83.96 302.28 82.53 303.16 81.14 302.66 79.66 302.94 78.24 303.71 76.85 302.43 75.31 303.47 73.95 303.78 72.53 304.13 71.12 302.94 69.55 304.42 68.26 303.58 66.72 304.09 65.33 303.96 63.86 304.83 62.51 304.36 61 303.91 59.49 305.34 58.22 304.86 56.7 305.81 55.38 304.74 53.77 306.44 52.57 305.16 50.91 305.32 49.48 307.02 48.29 307.01 46.83 307.49 45.45 307.65 44.01 306.89 42.42 308.04 41.16 308.37 39.75 307.3 38.1 309.18 36.97 307.69 35.24 307.81 33.79 309.56 32.65 308.8 31.04 308.88 29.59 308.97 28.13 310.41 26.94 309.79 25.35 311.13 24.15 310.33 22.52 311.27 21.23 311.61 20.11 312.83 20.59 314.18 21.5 314.86 22.86 314.67 24.61 315.59 25.79 316.23 27.11 316.51 28.57 316.79 30.01 316.42 31.66 317.74 32.75 318.77 33.96 319.01 35.41 318.5 37.06 320.15 38.12 319.69 39.74 320.94 40.94 320.02 42.64 320.69 43.97 320.51 45.5 321.16 46.84 321.81 48.19 322.61 49.52 323.2 50.89 323.47 52.32 322.18 54.03 322.45 55.46 322.48 56.93 324.29 58.12 323.71 59.68 323.49 61.19 324.46 62.52 324.85 63.95 325.45 65.34 324.3 66.95 325.21 68.31 325.97 69.69 326.01 71.16 325.61 72.67 325.69 74.12 326.36 75.53 324.8 77.09 326.57 78.43 326.65 79.72 325.15 81.36 327.25 82.3 326.28 84.02 327.83 84.77 328.45 86.02 330.02 86.15 331.33 85.3 331.95 83.83 333.02 82.92 333.22 81.45 333.77 80.2 334.53 79 335.35 77.76 336.43 76.55 336.08 75 335.86 73.48 336.71 72.22 336.88 70.78 337.76 69.55 338.29 68.22 338.08 66.66 338.51 65.29 339.21 64.02 339.51 62.61 339.65 61.14 339.88 59.69 341.27 58.68 340.96 57.03 341.81 55.82 343.59 54.98 342.55 53.04 342.85 51.61 344.73 50.83 345.46 49.59 345.15 47.9 346.82 47.05 346.74 45.46 347.45 44.2 346.71 42.31 348.82 41.67 348.85 40.1 348.97 38.58 350.79 37.83 351.39 36.53 351.34 34.92 351.61 33.46 352.33 32.21 353.24 31.05 353.69 29.68 353.58 28.01 354.36 26.79 354.79 25.39 356.77 24.83 356.53 23.04 357.75 22.1 358.41 20.82 359.84 20.07 359.86 18.28 360.89 18.26 360.65 19.08 361.64 20.53 360.79 21.93 361.27 23.38 361.87 24.83 360.82 26.22 360.17 27.63 361.2 29.09 361.53 30.53 360.89 31.94 361.11 33.38 360.51 34.79 361.21 36.24 359.83 37.63 360.99 39.09 361.37 40.53 360.58 41.94 360.7 43.37 360.95 44.81 360.16 46.22 360.87 47.67 359.66 49.06 360.32 50.52 359.7 51.92 359.77 53.35 360.93 54.81 360.61 56.23 359.79 57.64 360.89 59.1 360.81 60.53 359.25 61.91 359.63 63.36 359.69 64.79 359.84 66.23 359.66 67.66 359.33 69.09 360.14 70.54 359.78 71.97 359.35 73.4 358.96 74.82 359.21 76.27 358.75 77.69 359.18 79.14 358.95 80.57 359.64 82.02 359.21 83.44 359.42 84.88 360.16 86.32 358.42 87.73 358.83 89.16 359.15 90.6 359.24 92.03 358.96 93.46 359.45 94.89 359.62 96.31 358.28 97.74 358.75 99.22 360.21 100.59 359.34 102.12 359.95 103.51 360.71 104.82 359.95 106.53 360.27 108.04 362.15 108.64 363.04 109.42 364.05 111.18 365.18 109.52 365.65 108.39 366.74 107.41 366.47 105.99 366.28 104.61 367.14 103.21 367.18 101.82 366.15 100.47 367.37 99.03 367.83 97.62 367.78 96.24 367.17 94.86 367.02 93.46 366.01 92.02 367.35 90.58 367.63 89.14 367.11 87.69 367.75 86.26 366.09 84.79 366.37 83.35 368.05 81.95 368.14 80.51 367.2 79.05 367.47 77.61 366.83 76.15 367.01 74.71 366.7 73.26 366.62 71.81 368.08 70.42 367.43 68.96 367.57 67.52 368.32 66.11 367.41 64.63 367.96 63.21 368.52 61.79 367.71 60.32 368.22 58.9 368.66 57.47 367.24 55.97 368.25 54.57 367.96 53.12 368.59 51.7 367.49 50.21 368.99 48.83 368.97 47.39 368.77 45.94 368.1 44.47 368.02 43.03 368.43 41.6 368.49 40.16 368.48 38.72 369.4 37.3 368.11 35.83 369 34.41 368.87 32.96 367.94 31.5 368.88 30.08 368.46 28.63 368.98 27.19 369.36 25.75 369.72 24.31 368.02 22.87"/>
        <polygon class="cls-1" points="440.45 98.11 438.94 99.17 437.65 98.46 436.89 97.42 436.91 95.84 436.34 94.49 435.92 93.09 434.74 91.92 434.49 90.45 433.85 89.08 433.26 87.68 433.1 86.19 433.62 84.63 433.24 83.19 433.23 81.72 432.89 80.26 432.95 78.79 433.02 77.31 433.64 75.83 433.09 74.36 433.09 72.84 432.75 71.17 434.37 70.06 434.18 68.41 434.61 66.87 434.5 65.44 434.43 63.94 433.01 63.04 432.46 61.6 430.99 61.33 429.61 61.17 427.98 60.92 426.87 62.21 425.78 63.15 424.98 64.45 425.11 66.01 424.97 67.5 424.53 69.01 424.29 70.39 424.37 71.82 424.54 73.33 423.59 74.55 423.36 75.97 422.22 77.05 422.43 78.68 422.06 80.09 421.47 81.41 420.35 82.43 419.8 83.77 418.93 84.92 418.16 86.13 416.84 86.92 415.66 87.78 415.11 89.16 414.57 90.63 413.62 91.74 411.88 91.89 410.81 92.8 410.09 94.35 408.69 94.83 407.26 95.17 405.97 95.95 404.49 96.1 403.02 95.2 401.51 95.91 400.12 95.25 398.54 95.24 397.69 93.65 396.07 93.46 394.64 92.71 394.03 91.23 394.38 89.57 394.08 88.27 393.29 86.8 393.76 85.39 393.81 83.91 394.36 82.56 395.31 81.4 396 80.16 396.97 79.1 397 77.32 398.21 76.43 399.25 75.42 400.11 74.21 401.14 73.16 403.07 73.3 404.24 72.49 404.69 70.62 406.43 70.64 407.72 70.01 408.49 68.5 409.86 68 411.29 67.61 412.54 66.9 413.38 65.43 415.21 65.77 416.47 65.09 417.26 63.54 418.96 63.63 420.25 62.98 420.98 61.39 422.19 60.62 423.31 59.74 424.95 59.6 425.75 58.26 427.32 57.93 427.92 56.44 428.85 55.38 430.17 54.67 431.44 53.81 432.41 52.66 432.99 51.27 432.75 49.65 432.98 48.26 433.23 46.86 433.52 45.34 432.72 44.04 431.51 43.12 431.26 41.49 430.28 40.37 429.16 39.4 427.56 39.2 426.07 38.99 425.28 37.26 423.85 36.89 422.31 36.9 421.08 35.88 419.65 35.57 418.16 35.55 416.67 35.9 415.24 35.08 413.77 35.29 412.31 35.65 410.91 36.54 409.45 36.46 407.99 36.54 406.4 35.72 404.95 36.07 403.57 36.68 402.16 37.11 400.84 37.85 399.38 38.06 398.06 38.7 396.43 38.57 395.42 39.89 394.25 40.76 392.84 41.2 391.72 42.11 390.28 42.73 389.75 44.19 388.83 45.34 388.2 46.72 388.93 48.23 388.93 49.59 389.66 50.74 391 51.26 392.48 51.02 394.08 51.94 395.32 50.99 396.03 49.58 397.13 48.7 398.13 47.68 399.36 46.94 400.95 46.71 402.01 45.8 402.73 44.19 404.43 44.45 405.61 43.61 407.11 43.71 408.36 42.97 409.72 42.52 411.13 42.31 412.55 42.37 413.97 42.24 415.4 42.55 416.8 42.44 418.33 42.21 419.46 43.34 421.24 43.05 421.94 44.62 422.86 45.67 424.2 46.52 424.32 48.04 424.08 49.05 423.19 50.26 422.51 51.92 420.91 52.44 419.57 53.29 418.31 54.04 417.08 54.8 416.54 56.54 414.64 56.34 413.81 57.71 412.63 58.55 411.38 59.29 410.3 60.34 409.01 61.01 407.21 60.8 406.01 61.62 405.11 63 403.9 63.8 402.55 64.38 401.15 64.87 400.3 66.25 398.84 66.65 397.48 67.21 396.25 67.98 395.08 68.85 393.81 69.6 392.88 70.74 391.59 71.51 391.13 73.06 389.63 73.7 389.16 75.17 388.29 76.33 387.28 77.45 386.78 78.84 387.06 80.47 385.58 81.55 386.25 83.19 385.82 84.57 385.99 86.02 385.58 87.43 385.75 88.88 385.05 90.36 385.91 91.71 385.99 93.17 386.49 94.53 386.63 96.13 387.91 97.07 389.16 97.88 390.15 98.91 390.99 100.22 392.52 100.5 393.91 100.89 394.93 102.32 396.51 102.13 397.83 102.99 399.35 102.7 400.79 103.06 402.26 102.81 403.67 102.32 405.13 102.63 406.48 101.97 407.95 102.14 409.55 102.58 410.65 101.24 412.07 100.97 413.61 100.83 414.69 99.77 415.96 99.08 417.4 98.54 417.87 96.88 419.32 96.29 420.37 95.28 421.39 94.21 421.51 92.53 423.03 91.79 423.2 90.21 424.09 89.04 424.55 87.66 425.58 86.54 425.77 85.02 426.41 86.4 425.76 87.89 426.41 89.23 426.13 90.69 427.21 91.93 426.52 93.51 427.8 94.66 428.2 95.99 427.67 97.63 428.31 98.92 428.76 100.31 429.53 101.55 430.94 102.25 431.75 103.57 433.27 103.98 434.56 102.77 436.4 103.06 437.04 101.26 438.12 100.28 439.88 99.9 440.45 98.11"/>
        <path class="cls-1" d="M481.1,101.4l1.5.79,1.58.31,1.33-1.07,1.62.55,1.43-.33,1.41-.23,1.44-.22,1.54.15,1.09,1.12,1.11,1.37,1.61.35,1.61-1.66,1.44,1.44,1.19-1.09,1-1.07,1.28-.22,1.5-.22-.24-1.67,1.57-.9v-1.79s-1.48-1.07-1.48-1.07l-1.53-1.23-1.35,1.52-1.55.11h-1.3s-.62-.35-.62-.35l.39-1-.16-1.62-.44-1.53,1.2-1.43-.68-1.43.88-1.43-1.27-1.44-.02-1.43.93-1.42.56-1.42-1.3-1.45,1.41-1.41.13-1.43-1.93-1.48,1.05-1.41.48-1.42-1.12-1.46,1.43-1.39-.55-1.45.92-1.4-.07-1.43.12-1.42-1.13-1.47.3-1.42-.4-1.45-.37-1.45.2-1.42,1.17-1.38-.28-1.44.23-1.42-.31-1.44.24-1.42.22-1.42,1.03-1.38-.75-1.47-.05-1.43-.92-1.48,1.88-1.34-.72-1.47.59-1.4.04-1.43.49-1.41-1.28-1.5,1.02-1.39-.46-1.47.07-1.45.75-1.4-1.04-1.52.33-1.43.45-1.42-.5-1.49.18-1.45.75-1.41.33-1.43-.37-1.48-.66-1.51.96-1.39-.25-1.47,1.11-1.38-1.14-1.53-.3-1.47-.03-1.44.79-1.39-.41-1.22-.17-1.22-.67-.98-.56-1.47-1.46-.86-1.57.95-.89,1.45-.67,1.06-1.98.67-.25,1.59,1.19,1.66-.4,1.46-.36,1.5.56,1.42-.17,1.42-1.51,1.4,1.21,1.43-.59,1.4.73,1.43-1.61,1.37,1.12,1.44.66,1.43-.55,1.4-1.45,1.36.15,1.42,1.24,1.46-.48,1.39.35,1.43-.21,1.4-.68,1.38-.1,1.41-.42,1.39,1.52,1.49-.74,1.72-1.59-.64-1.41-.08-1.31-.26-.72-2.27-1.35-.4-1.74,1.6-1.1-1.65-1.37-.38-1.42,1.29-1.43-.35-1.47-.48-1.45.15-1.25,1.49-1.71-1.52-1.44.28-1.05,1.77-1.77-.91-1.43.36-.79,1.93-1.27.61-1.16.82-1.84-.37-.71,1.56-1.79-.06-.45,1.76-.95,1.04-1.55.43-1.54.55-1.21.92-.82,1.25.1,1.83-.69,1.25-.89,1.15-1.24,1.03-.08,1.54.37,1.64-1.61,1.02-.56,1.37-.43,1.42.8,1.59.63,1.49-1.96,1.32.22,1.48.77,1.44-.94,1.5.12,1.46.5,1.42.95,1.33-.88,1.63.58,1.38.79,1.3,1.54,1.05.14,1.43.37,1.37-.89,1.93.76,1.27,1.12,1.07.85,1.18,1.25.91.55,1.35,1.07.98.1,1.79,1.85.26,1.23.75.67,1.37,1.14.85.68,1.52,1.61.17,1.03,1.08,1.16.92,1.84-.62,1.17.85,1.27.68,1.38.36,1.51-.25,1.08,2.05,1.52-.21,1.53-.88,1.42.19,1.43-.36ZM480.64,44.1l1.37.96,1.28.72,1.5-.53,1.12,1.15,1.32.3,1.32.35,1.41.19,1.43.27.88,1.08-.87,1.34-.02,1.44,1.71,1.51-1.6,1.38.78,1.48.64,1.47-.43,1.42-.8,1.4,1.12,1.5-1.44,1.37-.44,1.42.51,1.47-.79,1.39.99,1.51-.48,1.41v1.44s-.75,1.39-.75,1.39l.08,1.45.45,1.49.54,1.44-1.25,1.29.56,1.45-.99,1.31,1.15,1.5-.07,1.39-1.01,1.33-.62,1.37,1.27,1.44-1.4,1.38-.08,1.48-.03,1.58-1.65-.39-1.45.18-.8,1.64-1.79-.79-1.15.84-1.39-.9h-1.4s-1.38-.23-1.38-.23l-1.62.9-1.36-.58h-1.53s-1.54-.09-1.54-.09l-1.31-.73-.8-1.65-1.41-.43-1.1-.94-1.38-.58-.98-1.09-.92-1.12-.23-1.69-1.51-.59-.92-1.1-1.61-.72.9-2.13-1.32-.94-.05-1.51-.49-1.32.02-1.46-1.63-1.09.69-1.58-.71-1.35-.12-1.43.62-1.44-1.1-1.46.35-1.44.54-1.38-.32-1.54.43-1.4,1.05-1.18.72-1.24.15-1.5v-1.66s1.51-.79,1.51-.79l.55-1.38,1.68-.46.07-1.9.81-1.31,1.09-1.04,1.64-.26,1.08-1.03,1.38-.54,1.31-.67,1.66.31,1.51.13,1.18-1.07,1.25-1.2,1.44-.42,1.56,1.39,1.41-1.4Z"/>
        <polygon class="cls-1" points="569.3 84.23 570.36 83.03 569.84 81.32 570.56 79.86 570.08 78.46 569.33 76.88 567.59 76.88 566.35 77.51 564.85 76.9 563.92 78.05 562.67 78.76 562.47 80.34 561.17 81.27 560.81 82.79 559.55 83.69 559.14 85.25 557.82 86.06 556.95 87.26 555.45 87.79 554.67 89.14 553.77 90.43 552.37 91.02 551.01 91.63 549.73 92.41 548.27 92.74 546.85 93.17 545.4 93.46 543.9 93.31 542.5 94.16 541 93.36 539.51 94.22 538.16 93.21 536.81 92.73 535.43 92.44 533.66 92.98 532.73 91.52 531.03 91.5 530.15 90.19 529.24 89.04 527.7 88.45 527.57 86.72 526.51 85.68 526.18 84.24 525.56 82.95 524.68 81.71 524.76 80.19 523.93 78.85 524.32 77.34 523.67 75.89 523.98 74.44 524.63 73.04 525.11 71.67 524.18 70.09 525.02 68.77 525.68 67.46 525.55 65.94 526.5 64.74 526.91 63.38 527.37 62.03 527.73 60.63 528.14 59.22 529.1 58.11 530.28 57.16 531.05 55.97 530.98 54.14 532.65 53.64 533.19 52.21 533.87 50.85 535.09 50.02 536.5 49.45 537.18 47.96 538.87 47.87 540.21 47.34 541.28 46.34 542.76 46.17 543.84 45.01 545.28 44.82 546.66 44.43 548.13 44.6 549.52 44.33 550.93 43.92 552.48 43.67 553.69 44.79 555.2 44.99 556.15 46.23 557.81 46.47 558.92 47.49 559.45 49 559.98 50.37 561.42 51.25 561.11 52.91 561.41 53.9 560.88 55.39 559.29 55.36 557.85 55.63 556.77 56.85 555.1 56.51 553.87 57.34 552.32 57.26 550.97 57.77 549.59 58.15 548.42 59.29 546.98 59.54 545.67 60.21 544.34 60.86 542.92 61.15 541.34 60.84 540 61.43 538.58 61.7 537.25 62.31 535.83 62.58 534.42 62.87 532.59 62.96 531.49 64.48 531.02 66.11 531.97 67.34 532.11 69.25 533.8 69.65 535.23 70.46 536.88 70.62 538.4 70.75 539.67 69.65 541.2 69.96 542.52 69.3 543.91 68.96 545.41 69.01 546.61 67.94 548.03 67.71 549.47 67.55 550.74 66.78 552.13 66.42 553.62 66.41 555.04 66.13 556.32 65.4 557.53 64.49 559.06 64.56 560.35 63.88 561.92 64.01 562.97 62.74 564.12 61.94 565.29 61.18 566.71 60.74 567.62 59.64 568.58 58.62 569.21 57.37 570.17 56.15 570.69 54.65 570.14 53.22 569.36 51.9 568.92 50.6 569.43 48.96 568.78 47.67 567.34 46.84 566.78 45.56 566.12 44.32 564.93 43.52 564.02 42.47 563.56 40.82 561.95 40.61 560.96 39.54 559.49 39.28 558.65 37.75 557.04 37.9 555.58 37.88 554.32 37.21 553.09 36.05 551.63 36 550.17 36.77 548.73 36.54 547.32 36.91 545.89 36.98 544.4 36.83 542.98 37.12 541.51 37.29 540.46 38.71 539.02 38.92 537.69 39.46 536.56 40.37 535.39 41.17 533.5 40.86 532.27 41.67 531.87 43.54 530.17 43.73 528.99 44.6 528.57 46.23 527.41 47.11 526.19 47.96 525.3 49.1 525.13 50.76 523.38 51.3 522.59 52.53 522.68 54.26 521.22 55.11 520.5 56.38 520.79 58.1 520.26 59.42 519.89 60.8 518.67 61.9 518.83 63.45 517.77 64.66 518.12 66.22 517.93 67.64 517.19 68.96 516.49 70.32 516.1 71.74 516.03 73.2 516.64 74.69 516.62 76.13 516.44 77.57 516.04 79.05 516.45 80.49 517.18 81.87 516.61 83.44 516.78 84.91 517.07 86.38 518.15 87.57 519.15 88.72 518.68 90.56 519.55 91.78 520.75 92.76 521.12 94.33 522.11 95.45 523.32 96.35 524.75 96.95 525.48 98.42 526.83 99.08 528.26 99.54 529.9 99.48 531.14 100.19 532.48 100.73 533.62 102.08 535.1 102.29 536.61 102.21 538.08 102.27 539.56 101.99 541 102.22 542.45 102.02 543.96 102.6 545.31 101.65 546.68 101.19 548.17 101.2 549.54 100.74 551.09 100.73 552.24 99.71 553.66 99.29 555.02 98.72 555.78 97.22 557.09 96.58 558.33 95.82 559.43 94.88 560.27 93.64 562.13 93.5 562.99 92.27 563.54 90.77 564.58 89.76 565.5 88.63 566.64 87.7 568.17 87.09 568.99 85.87 569.3 84.23"/>
        <polygon class="cls-1" points="352.6 120.27 352.62 118.94 353.03 117.46 352.76 116.07 351.54 115.06 351.08 113.94 350.45 113.01 348.96 112.5 347.29 112.42 346.61 114.21 346.47 115.61 346.03 116.72 344.43 117.87 344 119.35 345.36 120.82 345.05 122.28 343.83 123.69 343.97 125.16 344.32 126.64 345.05 128.14 345.12 129.61 344.29 131.02 343.26 132.41 343.27 133.88 344.67 135.44 344.57 136.9 342.89 138.25 343.7 139.78 343.81 141.26 343.43 142.7 342.39 144.09 343.27 145.62 343.83 147.14 342.71 148.34 341.61 149.39 339.97 148.15 338.53 148.35 337.26 149.94 335.8 150.07 334.18 148.67 332.76 149.13 331.39 149.99 329.89 149.77 328.5 150.46 326.96 149.76 325.56 150.47 324.03 149.99 322.69 151.14 321.21 151.14 319.69 150.72 318.19 150.41 316.89 152.01 315.37 151.62 313.9 151.56 312.42 151.53 310.93 151.36 309.47 151.48 308.44 152.3 307.79 151.05 308.91 149.61 307.51 148.12 307.32 146.65 309.25 145.27 309.23 143.81 309.05 142.35 307.91 140.83 308.03 139.38 309.1 137.98 307.7 136.44 308.72 135.04 308.67 133.58 309.81 132.17 309.2 130.69 308.33 129.2 309.95 127.79 308.99 126.31 309.83 124.85 308.78 123.44 309.75 121.98 308.74 120.61 309.38 119.1 308.06 117.88 308.47 116.33 307.63 115.14 307.53 113.28 305.68 113.45 304.76 114.59 303.61 115.16 302.77 116.31 302.54 117.76 301.82 119.09 301.55 120.56 301.29 122.03 300.53 123.48 301.67 125.02 300.22 126.45 301.7 127.97 300.22 129.39 299.8 130.85 299.9 132.32 301.72 133.86 300.13 135.26 301.49 136.8 300.55 138.22 300.08 139.67 301.22 141.2 299.58 142.58 300.1 144.08 299.43 145.5 299.5 146.98 300.18 148.49 299.39 149.9 300.31 151.44 299.33 152.84 300.22 154.38 299.64 155.81 298.59 157.2 297.91 158.61 299.68 160.23 298.59 161.59 297.87 162.99 298.6 164.53 297.58 165.9 297.56 167.36 297.56 168.83 297.84 170.32 298.16 171.82 297.53 173.23 296.54 174.61 296.45 176.07 298.22 177.68 296.46 179.01 297.25 180.53 297.89 182.04 297.4 183.47 296.52 184.88 297.71 186.41 296.16 187.79 295.7 189.23 296.26 190.72 295.45 192.15 296.56 193.66 296.11 195.1 296.18 196.57 295.47 198.02 295.66 199.48 296.26 200.95 297 202.25 296 203.78 297.18 204.82 297.49 206.5 299.27 205.79 300.49 205.88 302.08 206.47 303.77 205.74 303.31 203.68 305.19 202.67 305.62 201.1 303.72 199.32 304.9 197.89 305.48 196.47 304.34 194.92 305.92 193.57 305.39 192.06 306.42 190.67 306.39 189.2 306.57 187.75 305.41 186.2 305.77 184.76 305.38 183.26 305.02 181.77 305.27 180.32 306.56 178.94 306.29 177.46 306.57 176.01 306.27 174.52 306.57 173.08 306.83 171.62 307.96 170.24 307.19 168.71 307.17 167.24 306.22 165.7 308.27 164.38 307.53 162.85 308 161.84 309.05 161.85 310.57 162.12 311.88 160.53 313.46 161.38 314.86 160.64 316.33 160.46 317.87 160.99 319.21 159.62 320.7 159.71 322.21 159.92 323.61 159.11 325.1 159.02 326.65 159.54 328.13 159.57 329.5 158.87 330.84 157.87 332.4 158.6 333.81 158.06 335.36 158.98 336.67 157.51 338.09 156.95 339.53 156.71 341.05 157.39 342.89 157.1 342.85 159.02 342.84 160.48 341.82 161.88 341.11 163.3 341.83 164.8 342.76 166.31 342.92 167.78 341.22 169.13 341.3 170.6 342.7 172.14 342.27 173.57 341.81 175 342.33 176.49 342.08 177.93 340.4 179.3 341.64 180.82 340.96 182.24 341.7 183.74 339.95 185.11 341.11 186.63 341.79 188.12 341.19 189.55 339.63 190.95 339.79 192.42 341.11 193.93 340.61 195.38 341 196.85 340.79 198.31 340.08 199.74 340 201.2 339.58 202.65 341.25 204.15 340.7 205.6 340.6 207.06 341.09 208.51 341.3 209.96 339.21 211.37 339.17 212.79 341.28 214.12 339.82 215.61 339.76 217.09 341.46 218.15 341.57 219.51 341.93 221 343.16 221.86 344.88 220.99 345.92 223.09 347.4 223.17 347.71 221.19 349.43 220.16 349.63 218.67 348.01 217.24 347.97 215.8 347.75 214.37 349.08 212.94 348.09 211.49 349.26 210.07 348.09 208.61 347.94 207.17 348.79 205.75 349.62 204.34 350.01 202.92 349.94 201.49 348.8 200.02 348.79 198.59 349.1 197.17 349.89 195.76 349.4 194.31 348.51 192.83 349.93 191.46 350.23 190.05 350.47 188.63 349.46 187.14 348.72 185.66 350.82 184.36 350.65 182.92 349.96 181.44 351.14 180.1 351.24 178.68 350.99 177.23 350.31 175.74 351.65 174.43 351.47 172.98 351.12 171.52 349.99 169.97 350.46 168.55 350.71 167.12 352.48 165.79 352.42 164.31 351.98 162.8 351.93 161.33 351.44 159.8 351.93 158.38 351.84 156.89 353.47 155.79 353.26 153.75 353.34 152.51 353.76 151.01 353.21 149.59 353.21 147.91 352.47 146.61 352.93 145.15 353.27 143.69 351.9 142.19 352.34 140.74 352.65 139.28 352.67 137.81 352.11 136.33 354.11 134.94 353.73 133.46 352.69 131.95 352.87 130.5 352.78 129.03 353.2 127.58 354.51 126.15 354.25 124.68 352.58 123.18 354.15 121.74 352.6 120.27"/>
        <path class="cls-1" d="M407.91,141.77l-1.4-.24-1.2.7-1.46.11-.86-1.64-1.4-.09-1.48.5-1.28-.39-1.32-.17-1.48-.61-1.4.66-1.52-.25-1.18,1.31-1.66-.53-1.1,1.2-1.15.9-1.45.28-1.22.75-1.26.69-1.44.49-.94,1.14-1.35.68-.74,1.31-.44,1.53-1.25.82-.49,1.42-1.08.98-.64,1.29-.64,1.28-.74,1.22-.98,1.11-.64,1.29-.1,1.51-.6,1.3-.77,1.25-.79,1.27-.69,1.32.35,1.58.14,1.49-.28,1.4-1.06,1.3-.39,1.42.71,1.51-.24,1.42-.74,1.44.15,1.47.34,1.45.62,1.4.27,1.42-.21,1.5-.27,1.55.41,1.42,1.28,1.16.44,1.37-.41,1.7,1.08,1.14.74,1.25.53,1.36.27,1.55,1.32.88,1.2.9.44,1.53,1.43.63.49,1.63,1.18.9,1.69.09,1.23.72.91,1.49,1.45.37h1.53s1.37.57,1.37.57l1.49-.09,1.41.66,1.48-.29,1.45.36,1.4-.68,1.43-.03,1.47.18,1.48.04,1.22-1.16,1.46-.03,1.41-.3,1.39-.39,1.41-.39,1.32-.62,1.11-.98.96-1.15,1.55-.32.53-1.59.91-1.07,1.81-.26.9-1.15.74-1.26.18-1.6.75-1.2,1.2-.97-.2-1.67,1.09-1.07.44-1.36,1.09-1.14.03-1.49-.17-1.52,1.27-1.17-.29-1.52.75-1.32-.41-1.51.8-1.34-.41-1.48.61-1.38-.58-1.47.53-1.4-.18-1.43.65-1.43-.6-1.45-.66-1.38.06-1.46-.14-1.45-.46-1.39-.12-1.46-.37-1.41-.36-1.41-.07-1.51-1.16-1.14.29-1.67-1.42-.99.19-1.69-.46-1.42-.81-1.25-1.75-.62-.08-1.72-1.6-.55-.64-1.38-1-1.09-1.6-.05-1.05-1.35-1.52.45ZM392.17,199.69l-1.44-.53-1.45-.09-1.62.2-.81-1.75-1.34-.48-1.64-.3-.89-1.22-.84-1.22-.23-1.57-1.15-1.01-.15-1.51-1.47-1,.49-1.69-1.1-1.21-.67-1.37.15-1.53-.22-1.45v-1.47s.38-1.48.38-1.48l-.31-1.44.44-1.43-.32-1.45-.57-1.51.61-1.4-.24-1.51.59-1.38.16-1.46.27-1.44.48-1.39.82-1.26.55-1.34.11-1.54.72-1.28.97-1.14,1.06-1.05,1.05-1.01.3-1.58.62-1.41,1.07-1.04,1.66-.32,1.27-.67.77-1.47,1.38-.53,1.59.12,1.31-.53,1.34-.55,1.38-.67,1.47-.16,1.56.72.86,1.46,1.72.63,1.82-.77,1.38,1.09,1,1.63,1.46.23,1.19.83.82,1.19.31,1.47,1.2.95.95,1.17-.16,1.57.94,1.23-.57,1.58.25,1.39,1.03,1.31.1,1.44-.89,1.47.2,1.41.42,1.41-.28,1.4.25,1.43-.64,1.37.19,1.44-.57,1.35.38,1.49-.37,1.37-.66,1.3-.63,1.28.43,1.61-.79,1.23-.66,1.25-.7,1.22-.84,1.13-.76,1.16-.57,1.3-.56,1.37-1.45.56-.47,1.6-1.06,1-1.81-.19-1.18.69-1.2.7-1.09,1.17-1.4.35-1.51-.31-1.29,1.09-1.48-.46-1.42.21Z"/>
        <polygon class="cls-1" points="460.47 141.5 459.05 141.22 457.61 141.15 456.32 142.26 454.81 141.75 453.65 142.77 452.15 142.72 450.67 143.01 450.14 144.71 449.08 145.55 447.32 145.81 446.58 147.07 445.98 148.33 446.29 146.84 445.26 145.34 446.4 143.69 445.6 142.23 444.55 141.09 443.81 139.53 442.14 139.35 440.53 139.27 439.08 140.16 438.73 141.79 437.85 143.1 438.37 144.74 437.85 146.27 437.55 147.81 438.35 149.41 437.84 150.95 437.97 152.51 438.48 154.11 436.95 155.38 436.98 156.93 437.6 158.52 437.32 160 437.21 161.46 436.53 162.91 437.04 164.37 436.52 165.82 437.49 167.3 436.46 168.73 437.16 170.21 437.47 171.69 436.99 173.13 436.95 174.58 436.75 176.03 436.2 177.47 436.4 178.94 435.91 180.37 436.23 181.85 436.86 183.34 436.34 184.77 436.74 186.25 436.35 187.69 436.45 189.15 436.49 190.61 436.37 192.07 435.94 193.51 435.86 194.97 436.32 196.43 436.2 197.89 435.87 199.34 435.48 200.79 435.24 202.26 436.2 203.54 437.06 204.63 437.72 205.64 438.37 207.07 439.84 207.55 441.06 206.45 442.27 205.91 443.77 205.37 444.39 203.98 444.41 202.48 443.92 201.01 443.83 199.54 444.3 198.08 444.89 196.62 444.84 195.16 443.94 193.68 443.96 192.21 444.96 190.77 444.43 189.29 444.32 187.81 444.53 186.35 445.14 184.89 444.57 183.41 444.2 181.93 444.91 180.48 444.37 178.99 445.31 177.55 445.34 176.08 444.53 174.58 444.61 173.11 445.64 171.68 445.52 170.21 445.16 168.73 445.47 167.27 445.24 165.79 445.95 164.49 445.88 163.08 446.6 161.83 446.4 160.33 446.95 159.04 447.8 157.88 448.62 156.74 448.46 155.1 449.46 154.05 450.35 152.98 451.31 151.99 452.41 151.17 453.47 150.38 454.49 149.48 455.68 148.63 457.11 149.15 458.64 148.35 460.21 148.51 461.13 150.13 462.2 150.91 463.12 151.93 464.4 152.98 464.87 154.38 465.08 155.96 466.58 155.66 467.95 156.07 469.14 155.43 470.61 154.83 470.87 153.32 470.6 151.86 471.65 150.52 470.92 149.14 471.01 147.63 469.8 146.64 469.47 145.12 468.07 144.5 467.26 143.25 465.7 143.1 464.63 142.09 463.23 141.86 461.95 140.94 460.47 141.5"/>
        <polygon class="cls-1" points="503.26 141.03 501.89 141.85 500.47 141.7 499.13 142.15 497.5 141.72 496.35 142.71 495.02 143.27 493.98 144.29 493.01 145.32 491.97 146.12 492.01 144.74 491.38 143.27 491.09 141.85 491.16 140.25 490.18 138.76 488.43 139.53 486.84 138.97 485.96 140.32 485.32 141.56 484.5 142.75 483.93 144.09 484.3 145.64 482.98 146.93 483.54 148.45 483.9 149.92 482.7 151.35 482.69 152.82 483.38 154.55 482.37 155.65 482.74 157.22 481.52 158.6 481.32 160.12 482.13 161.63 481.31 163.05 482.1 164.55 481.47 165.98 481.73 167.46 481.76 168.92 481.64 170.38 481.69 171.84 480.44 173.21 480.61 174.68 481.04 176.17 480.64 177.6 480.41 179.04 481.3 180.54 480.45 181.95 481.06 183.44 480.38 184.86 479.86 186.29 480.9 187.79 480.78 189.24 479.63 190.66 479.84 192.12 480.03 193.58 479.72 195.04 480.71 196.51 479.41 197.96 479.91 199.42 480.4 200.75 479.7 202.16 480.02 203.51 480.11 204.97 480.83 206.33 482.35 206.86 483.7 207.7 485.14 206.62 486.62 205.9 487.68 204.62 487.43 202.84 488.17 201.42 488.09 199.95 487.49 198.45 488.86 197.06 488.64 195.58 487.91 194.08 488.21 192.63 488.4 191.17 489.16 189.75 488.72 188.26 489.31 186.84 488.38 185.31 489.48 183.92 488.82 182.41 488.56 180.93 489.09 179.51 489.17 178.05 489.42 176.61 490.01 175.19 489.85 173.71 490.38 172.29 490.1 170.81 489.51 169.29 490.07 167.87 489.71 166.38 490.16 164.95 490.11 163.47 490.16 161.98 490.48 160.52 491.2 159.16 491.69 157.78 491.79 156.22 492.59 154.93 493.69 153.88 494.93 153.02 496.17 152.3 496.91 150.87 498.01 149.74 499.45 149.21 501.1 149.7 502.49 149.8 503.94 148.99 505.36 149.3 506.63 150.25 508.01 150.48 509.42 150.7 510.93 150.86 512.24 151.53 513.13 152.76 513.78 154.13 514.76 155.1 516.37 155.66 517.16 156.89 516.98 158.61 518.1 159.64 518.76 160.91 519.06 162.32 518.9 163.84 519.85 165.06 520.56 166.38 520.14 167.91 520.95 169.23 520.22 170.76 520.37 172.16 521.36 173.52 521.42 174.95 520.49 176.42 520.7 177.83 521.15 179.25 520.89 180.65 521.18 182.07 520.57 183.44 520.81 184.87 520.3 186.24 520.79 187.69 520.56 189.09 520.05 190.45 519.62 191.82 520.38 193.31 519.92 194.68 519.67 196.07 519.45 197.47 519.17 198.88 519.09 200.29 519.37 201.71 519.91 203.05 519.55 204.56 520.93 205.44 521.84 206.23 522.51 207.88 524.04 208.05 525.54 207.72 526.55 206.48 527.52 205.63 528.77 204.75 528.34 203.14 529.17 201.89 529.21 200.48 529.94 199.04 529.58 197.56 529.06 196.08 530.09 194.65 529.53 193.17 530.09 191.72 529.49 190.24 530.16 188.79 529.63 187.31 530.16 185.85 529.51 184.37 530.01 182.91 529.82 181.44 530.49 179.98 529.94 178.51 529.42 177.04 529.69 175.58 529.78 174.15 529.55 172.73 529.68 171.29 529.55 169.86 529.43 168.43 529.61 166.95 528.63 165.67 529.2 164.08 527.93 162.91 528.41 161.29 528.19 159.84 527.6 158.5 525.98 157.61 526.26 155.91 524.81 155.04 524.59 153.54 524.03 152.19 522.59 151.46 522.48 149.74 521.24 148.9 520.48 147.61 519.33 146.72 517.91 146.21 516.98 145.03 515.43 144.84 514.42 143.69 512.87 143.69 511.65 142.93 510.44 141.95 509.1 141.27 507.47 142.18 506.14 141.41 504.72 140.93 503.26 141.03"/>
        <polygon class="cls-1" points="593.26 181.8 592.02 182.27 590.64 181.98 589.78 183.03 588.75 183.72 587.38 184.62 586.97 186.09 586.76 187.73 585.6 188.72 584.93 190.09 583.4 190.71 582.73 192.11 581.86 193.38 580.32 193.85 579.38 195.08 578.17 195.98 576.42 195.85 575.3 196.9 573.94 197.48 572.39 197.42 571.05 198.06 569.63 198.58 568.16 198.82 566.67 199.11 565.25 197.96 563.76 198.37 562.23 198.5 561.1 197.16 559.42 197.5 558.19 196.65 557.19 195.5 555.72 195.05 554.44 194.24 553.89 192.76 552.91 191.68 552.64 190.17 551.29 189.23 551.12 187.73 551.21 186.21 549.67 185.07 549.58 183.58 549.51 182.1 549.48 180.62 549.91 179.19 549.68 177.73 550.15 176.33 549.81 174.81 550.95 173.56 550.65 172.02 550.69 170.52 551.51 169.26 552.4 168.05 553.04 166.77 552.97 165.16 553.91 164.01 554.49 162.68 555.96 161.9 556.37 160.47 557.31 159.39 557.99 158.1 558.82 156.92 560.01 156.06 561.11 155.15 561.86 153.81 562.96 152.85 564.5 152.54 565.94 152.19 566.7 150.57 568.36 150.76 569.5 149.71 570.83 149.1 572.3 149.01 573.75 148.94 575.13 148.15 576.6 149.18 578.09 148.67 579.67 148.7 580.55 150.33 581.74 151.06 583.53 151.14 584.26 152.54 585.7 153.28 585.7 155.07 586.3 156.35 587.61 157.4 587.26 158.73 586.47 159.93 584.93 160.02 583.71 160.87 582.4 161.49 581.03 161.97 579.71 162.58 577.98 161.97 576.69 162.65 575.46 163.56 573.99 163.68 572.56 163.94 571.42 165.24 569.82 164.91 568.6 165.93 567.05 165.74 565.54 165.68 564.43 167.08 563.01 167.39 561.35 166.75 560.02 167.37 558.53 168.21 556.99 169.09 557.38 170.85 556.59 172.64 558.07 173.62 559.63 174.01 560.9 175.22 562.55 175.29 564.06 175.46 565.5 175.24 566.8 174.39 568.32 174.59 569.56 173.61 571.05 173.67 572.5 173.5 573.66 172.31 575.15 172.35 576.49 171.82 577.69 170.79 579.43 171.58 580.72 170.89 581.85 169.71 583.28 169.47 584.67 169.11 586.24 169.26 587.42 168.29 588.94 168.22 589.82 166.73 591.55 166.83 592.31 165.39 593.09 164.18 594.27 163.36 594.91 162.12 595.45 160.8 596.05 159.39 595.72 157.96 595.94 156.48 595.25 155.16 594.18 154.03 594.05 152.59 593.01 151.58 592.54 150.24 591.58 149.23 590.59 148.26 589.66 147.25 588.84 146.06 587.73 145.18 586.29 144.84 585.13 144.08 584.01 143.19 582.83 142.31 581.56 141.56 580 141.88 578.56 142.04 577.2 141.85 575.84 140.94 574.37 140.76 572.99 141.68 571.55 141.69 570 141.25 568.6 141.69 567.27 142.32 566.05 143.23 564.76 143.83 563.27 144 561.72 144.15 560.47 144.93 559.73 146.46 558.56 147.27 556.84 147.39 556.07 148.74 555.1 149.81 553.96 150.7 552.56 151.38 552.06 152.87 551.49 154.24 550.11 155.01 549.78 156.52 548.27 157.28 547.55 158.55 547.62 160.22 546.96 161.49 545.5 162.42 545.1 163.83 544.99 165.33 544.3 166.62 544.18 168.1 543.29 169.35 543.27 170.84 542.59 172.18 542.92 173.71 542.61 175.12 542.08 176.51 541.67 177.93 542.43 179.44 542.05 180.86 541.9 182.31 541.81 183.78 541.71 185.26 541.83 186.74 542.35 188.16 543.07 189.5 542.81 191.09 544.09 192.21 544.75 193.49 544.36 195.29 545.13 196.57 546.07 197.73 547.54 198.46 548.46 199.56 549.07 201.01 550.74 201.28 551.55 202.59 552.8 203.32 553.77 204.6 555.27 204.88 556.82 204.91 557.9 206.27 559.47 206.1 560.79 206.9 562.34 206.52 563.72 207.3 565.22 206.85 566.67 207.36 568.11 206.66 569.6 207.02 571.02 206.62 572.58 206.97 573.88 206.09 575.1 205.18 576.54 204.91 577.9 204.43 579.11 203.62 580.47 203.09 581.68 202.3 582.89 201.49 584.28 200.9 584.94 199.42 586.59 199.09 587.03 197.43 588.66 197.02 589.85 196.12 590.78 194.99 590.93 193.15 592.58 192.67 592.89 191.01 594.23 190.24 595.37 189.28 595.24 187.55 596.5 186.23 596.31 184.6 596.18 182.94 594.88 181.84 593.26 181.8"/>
        <polygon class="cls-1" points="634.06 141.15 632.65 141.71 631.27 142.1 629.85 141.88 628.33 141.45 627.01 142.09 625.66 142.57 624.37 143.21 623.62 144.57 621.98 144.84 621.49 146.34 620.74 147.52 619.37 148.79 619.1 146.85 619.65 145.3 618.8 143.84 619.64 142.09 618.1 141.11 617.47 139.35 615.72 139.85 614.27 139.71 612.98 140.48 612.74 141.95 612.47 143.25 611.81 144.73 611.95 146.3 611.9 147.85 611.77 149.4 612.13 150.97 611.49 152.51 611.88 154.08 611.27 155.51 610.27 156.89 610.52 158.47 611.22 160 610.86 161.46 611.19 162.92 610.4 164.37 610.89 165.84 611.2 167.31 610.52 168.75 610.93 170.22 610.97 171.68 609.94 173.1 610.38 174.58 610.37 176.04 609.78 177.47 610.04 178.94 610.26 180.41 610.28 181.87 610.46 183.34 609.27 184.74 609.78 186.23 610.15 187.7 609.07 189.11 609.95 190.61 609.66 192.06 609.14 193.5 609.63 194.97 609.86 196.43 609.23 197.88 609.36 199.34 608.78 200.79 609.66 202.17 609.49 203.62 609.48 205.2 611.31 205.63 612.22 206.38 613.43 206.66 614.63 206.41 615.98 206.07 616.68 204.87 617.62 203.84 617.31 202.48 618.22 201.01 617.59 199.54 617.24 198.07 617.67 196.61 618.13 195.15 618.27 193.69 617.56 192.21 617.92 190.75 617.82 189.28 618.73 187.83 618.3 186.35 618.46 184.89 618.23 183.41 618.11 181.94 618.42 180.48 618.56 179.01 618.07 177.52 618.02 176.05 618.7 174.6 619.21 173.15 618.17 171.64 619.1 170.21 618.59 168.72 618.46 167.24 618.82 165.79 619.17 164.43 618.8 162.92 620.22 161.84 619.96 160.32 620.01 158.84 621.59 157.96 622.15 156.71 621.85 154.99 623.02 154.04 623.31 152.52 625.01 152.09 626.02 151.2 626.58 149.66 628.15 149.64 629.21 148.39 630.7 148.77 632.21 148.51 633.75 148.69 635.19 149.32 636.53 150.2 636.46 152.06 637.27 153.24 638.26 154.46 638.73 155.9 640.17 156.63 641.39 155.51 642.88 155.64 643.3 154.24 644.38 153.29 645.13 151.98 644.12 150.52 644.07 149.23 644.72 147.58 643.84 146.36 642.81 145.34 642 144.11 640.3 144.04 639.75 142.23 638.22 142.07 636.75 142.07 635.52 141.01 634.06 141.15"/>
        <path class="cls-1" d="M614.55,77.34l-.78-1.42-.27-1.4.07-1.45.1-1.5-.74-1.29-.23-1.46-.62-1.32-1.1-1.03-.82-1.16-.58-1.41-1.29-.74-1.27-.66-1.17-.8-1.33-.5-1.36-.4-1.4-.31-1.43-.35-1.44.78-1.65-.28-1.22.7.13-1.35-.27-1.54-.1-1.54.4-1.49.63-1.47-.06-1.5.16-1.48.16-1.48-.39-1.51.67-1.46-.83-1.14-.91-.74-1.07-.31-1.1.33-1.09.78.17,1.42-1.04,1.3.53,1.5-.86,1.36.49,1.47-.33,1.41-.07,1.43.38,1.44.02,1.42-.4,1.32.14,1.33-.02,1.33-.1,1.33.19,1.44-.95.86.18,1.14.25,1.43-.59,1.42.26,1.43.5,1.44-.31,1.41.2,1.43-.59,1.4.34,1.43.22,1.43-.48,1.41.31,1.43.06,1.42-.7,1.42.38,1.65.15,1.64.14,1.73,1.23.69,1.29.32,1.28.31,1.31.09,1.24.95,1.4-.47,1.35-.46,1.51.47,1.19-1,1.37-.28,1.43-.24,1.07-.98,1.07-.9,1.37-.49.98-1.02,1.26-.77.38-1.48.97-1.05.96-1.13-.41-1.63.41-1.31.23-1.36.82-1.38ZM608.45,77.13l.64,1.49-.17,1.51-.8,1.3-1.07,1.06-.59,1.36-1.23.81-1.13.87-1.04,1.11-1.36.59-1.53-.05-1.37.58-1.46.3-1.74-.57-.23-1.46-.05-1.39.05-1.4.27-1.39-.63-1.41.72-1.4-.1-1.41-.02-1.41-.35-1.42-.19-1.42.31-1.4.55-1.39-.14-1.41.08-1.36.69-.47.89-1.29,1.58-.27,1.25-.91,1.55.02,1.49.47,1.36.78.86,1.32,1.36.86.03,1.72,1.23,1.09-.25,1.64.9,1.32-.06,1.52-.27,1.48Z"/>
        <polygon class="cls-1" points="618.73 109.8 619.76 109.58 620.92 109.22 622.22 108.82 623.42 108.1 624.93 108.42 626.23 108.13 627.54 107.66 629.2 107.59 630.79 108.02 632.28 108.77 633.52 109.1 634.88 108.82 636.11 109.06 637.35 109.8 638.76 108.69 640.14 108.15 640.22 106.71 640.78 105.6 640.27 104.54 640.17 102.41 640.03 100.93 640.35 99.46 640.75 97.99 640.54 96.51 640.11 95.01 641.12 93.58 641.24 92.12 640.79 90.61 640.96 89.15 640.84 87.65 641.25 86.21 641.52 84.76 641.58 83.28 641.68 81.81 642.01 80.37 642.02 78.88 642.4 77.45 642.56 75.98 642.85 74.51 642.53 72.98 643.62 71.56 642.95 70.01 642.87 68.5 643.24 67.02 643.71 65.52 643.26 64.01 643.25 62.42 642.42 61.01 640.86 60.85 639.66 61.09 638.32 61.55 638.05 62.93 638.03 64.24 637.86 65.52 637.98 66.89 638.01 67.82 637.85 69.27 637.47 70.71 638.05 72.23 637.25 73.69 637.23 75.04 636.96 76.39 636.91 77.83 636.63 79.24 635.8 80.41 634.71 81.42 634.18 82.72 633.38 83.85 632.5 84.92 631.89 86.28 630.39 86.64 629.4 87.74 627.97 88.13 626.38 87.56 625.36 86.3 625.15 84.73 624.21 83.42 624.79 81.78 623.88 80.38 624.54 78.83 623.9 77.34 624.23 75.84 624.44 74.35 624.28 72.78 624.58 71.28 625.35 69.92 625.62 68.42 626.04 66.97 626.55 65.53 626.66 63.99 627.33 62.59 626.7 61.39 626.09 60.28 624.82 59.37 623.5 60.45 623.2 61.94 622.37 63.1 622.13 64.51 621.17 65.7 621.17 67.18 621.1 68.62 620.34 69.91 620.41 71.38 620.26 72.8 619.34 74.11 619.55 75.58 619.47 77 619.04 78.42 619.31 79.85 619.62 81.26 619.84 82.66 620.25 84.02 619.74 85.6 620.59 86.85 621.43 88.03 621.48 89.65 622.91 90.34 623.85 91.37 624.95 92.35 626.43 92.37 627.83 92.28 629.26 92.61 630.62 92.14 632.12 91.93 633 90.64 634.28 89.96 635.59 89.2 635.75 87.49 637.11 86.29 637.02 88.1 636.83 89.58 636.37 91.02 636.49 92.52 636.14 93.99 636.47 95.49 635.72 96.94 636.15 98.44 636.38 99.93 636.05 101.41 635.71 102.89 635.67 104.23 634.68 104.47 633.44 103.97 632.14 103.83 630.93 102.98 629.58 103.19 628.26 103.05 626.77 103.31 625.31 103.56 623.81 103.59 622.34 103.84 621.03 104.66 619.71 105.28 618.2 105.62 616.71 106.48 616.64 108.21 616.32 109.55 617.57 110 618.73 109.8"/>
      </g>
      <g>
        <path class="cls-1" d="M43.68,134c-.27-3.3-.4-6.67-.38-10.09h0c0,3.44.13,6.8.38,10.09Z"/>
        <path class="cls-1" d="M43.3,123.91c-.02-3.43.11-6.8.38-10.11-.25,3.3-.38,6.67-.38,10.11Z"/>
        <path class="cls-2" d="M187.66,229.28c-30.8,8.36-66.06,6.81-95.58-3.85-46.19-16.02-65.42-59.9-64.75-101.52-.7-41.61,18.49-85.57,64.73-101.57,29.52-10.68,64.8-12.21,95.61-3.83,45.2,12.1,68.76,48.77,73.68,88.09.05.47.1.94.15,1.41.18,1.61.31,3.22.43,4.83.1,1.44.2,2.87.26,4.33.09,2.24.17,4.49.14,6.73h0c.03,2.25-.05,4.5-.15,6.74-.06,1.44-.16,2.86-.26,4.28-.12,1.66-.25,3.32-.44,4.98-.04.42-.08.85-.13,1.27-4.92,39.32-28.48,76.01-73.7,88.1ZM181.4,30.09c-27.43-7.57-56.92-6.03-83.01,3.8-39.71,14.54-55.84,54.33-55.09,90.02h0c-.75,35.68,15.36,75.51,55.08,90.05,26.1,9.86,55.6,11.41,83.05,3.82,45.07-12.4,65.61-54.67,64.93-93.88.64-39.19-19.92-81.43-64.96-93.82Z"/>
        <g>
          <path class="cls-1" d="M113.73,114.53c.01-.16.02-.34.03-.5l.44.21c-.19.18-.34.26-.47.28Z"/>
          <path class="cls-1" d="M116.4,102.53c.05-.12.1-.24.15-.36.15.05.3.13.42.19-.19.19-.38.2-.56.16Z"/>
          <path class="cls-1" d="M129.84,134.84c.2-.05.39-.1.53-.15-.15.2-.41.37-.31.48-.12.04-.22-.13-.22-.32Z"/>
          <path class="cls-1" d="M115.12,125.56c.23-.51.65.05,1.03-.28-.22-.41-.54-.03-.89-.08l.82-.69c-.09-.12-.26-.21-.49-.25.24-.23.59-.44.16-.73v.55s-.44-.19-.44-.19l.51-.67c-.22-.29-.47-.43-.72-.52,0-.03.03-.07.04-.1.01-.09.01-.17,0-.25-.08-.42-.24-.84-.44-1.22-.09-.16-.24-.31-.39-.46.19-.22.33-.49.4-.79.12-.16.17-.33.17-.49.05-.16.1-.32.14-.46-.08.05-.15.14-.23.22-.03-.07-.03-.14-.08-.21-.01-.07-.07-.11-.09-.17.14-.22.29-.43.38-.65-.17.12-.39.19-.59.25-.05-.08-.07-.18-.13-.25,0,0,0-.01,0-.02.13-.09.35-.13.39-.33-.08-.06-.15-.1-.22-.13-.05-.13-.1-.27-.15-.4.08-.26.09-.52-.08-.84,0,0-.12.1-.27.18-.08-.09-.18-.15-.27-.23.37-.59.9-.81,1.26-1.56.91-.95-.31-2.03.4-2.67.24,0,.34.58.55.14-.48.02-.26-.31-.45-.36.74-.4-.06-.75.45-1.03-.17.06-.32-.26-.45-.48-.58-.04-.13-.59-1.07,0,1-.6.06-1.38,1.48-1.66l.12.22-.11-.79v.03c-.02-.34.14-.35-.36-.93-.18.15-.24.42-.41.58-.41-.52.57-.74.74-1.15-.41-.09-.28.41-.74.16.03-.33.41-.51.61-.76l-.24-.02c-.28-.92,1.19.03.6-.75.13.06.29.03.41.11-.18-.27-.43-.89-.85-.5.08-.27.37-.51.66-.56.26.33.08.33.47.56.18-.32.35-.65.58-.94.05-.11-.25,0-.31.14-.63-1.66,1.86-1.96,1.28-3.83.25.33.35.07.64.08.1-.47.54-1.01.61-1.47l-.3-.04c.92-.72,1.63-1.08,2.02-1.67.11.05-.28-.25-.43-.2.71-.05.06-1.59.88-.98l-.08.2c.64-.87,2-1.07,2.93-1.5-.13-.64-.55.27-.78-.44.53-.58,1.4-.63,2.05-1.14-.16,0-.16-.09-.24-.09.57-.7.2.58.77.21-.16-.25-.17-.34-.02-.58l.39.36c0-.08-.16-.43-.32-.52.53.43,1.21-.33,1.66.19,0-.16-.35-.64-.34-.88.3-.29.63-.15.93,0h0c.12-.5.76-.63.61-.65.61-.35.2.3.78.55l-.44.38.93-.07-.43-.2c.36-.33.91.09,1.38-.04l-.15.39c.19.02.38.06.58.11-.07-.71.68-.26.25-1.03,1.02-.52,1.8.32,2.75.35-.17.01-.11-.14-.15-.25.55-.19.91.15,1.25.51-.07-.22-.21-.29-.22-.48.66-.03.41.41,1.13.62-.2-.3-.14-.46.06-.53-.03.26.13.45.26.53-.53-1.43.83-.57.52-1.71.04.28,1.16.97.79,1.53l-.19-.12c-.04.39.23.26.42.31-.1-.08-.2-.17-.2-.25.97.55,2.08.21,3.11.79-.06-.16-.47-.5-.16-.56,1.17-.05,1.61.94,2.53,1.54.33-.85-1.09-.44-.9-1.29,1.11.48,2.13,1.23,3.03,2.18,1-.93.79,1.02,1.96.59-.31.33-.1.69.22.94.1-.38.46-.12.53-.4.08.51.72,1.34,1.28.7-.51.68.61.54.41,1.17.59.1.51.89,1.09,1.18-.55.17.17.61.12.91,0-.07-.02-.21.05-.23.5-.14.05.79.45.92.24.03.39-.3.56-.11-.31.22-.22,1.19.36,1.25-.08-.13.08-.23.16-.38.2,1.71,1.64,2.99,1.45,4.87l.5-.49c1.12.76-.72.97-.42,1.74.92,2.08,2.3,4.34,2.21,6.7-.17.19-.24-.07-.5-.06.1.19.63.18.33.49l-.35-.02c1.02.95-.24,3.06,1.2,3.75-.49,1.06.48,1.73-.27,3.01.32.38.56-.48.68.05-.15.39-.32.78-.51,1.17l.05-.06c-1.05,1.09,1.19,2.96.35,4.32l.05-.06c.24-.02.5.28.41.5-.17.07-.25-.09-.44-.23-.49,1.19-.53,1.44-.68,2.39.4-.36.26.41.72.51-.36.19-.48-.21-.84.28-.2.72.16,1.54.13,2.16-.5.11-.48.43-1,.27-.14.35-.28.61-.43.88-.2.18-.38.36-.54.67l.14.13c-.59-.18-.11.58-.45.42.17.17.28.2.39.35l-.34.03c.2.08.7.48.52.76-.48-.17-.13-.32-.45-.54l.29.58c-.27.03-.63-.59-.54-.81-.51.22-1.11.13-1.86.21l.09.41c-.47-.19-1.01-.15-1.39.12,0-.12-.1-.36,0-.48-.51-.64-.16.66-.72-.04.14.17.33.29.32.53-.4-.24-.76-.43-1.17-.71-.07.3-1.02.78-1.52.4.02-.17.23-.36.38-.36l-.32-.23-.45.62-.39-.73-.15.57c-.36-.21-.34-.99-.67-1.01-1.29.08-1.11.33-2.09.68.16-1.14-1.39-.27-1.46-1.1-1.34.59-3.01-.2-4.67-.04l.13.1c-.71.5-.76-.88-1.55-.68l.19.17c-.97.54-2.67.19-3.68-.18.21.14.17.51-.13.52-.28-.18.12-.83-.36-.52.15.09.08.35-.03.38l-.6-.47c-1.29.59-2.65,1.39-4.02,1.43-.18.26.05.41.15.58-1.04.17-2.17.01-3.07.18l.1.65c-.43.13-.56-.87-.94-.16-.1.12.37-.06.61.17-.72.72-.68-.47-1.46-.18l.4.65c-.51.59-.81-.18-1.13-.54-.99-.68-.28,1.52-1.55,1.11-.22-.35-.03-.53-.24-.88-.64.21-.86-.19-1.37-.08-.39,1.06.31.04-.11,1.02.18-.08.32-.09.52-.22-.49.63.45.1.41.76-.41.27-.98-.36-1.35-.62-.08.49.51.11.23.75l-.22-.22c.05.15.03.34.19.34-.14.45-.31,0-.55-.04.03-.25.12-.61.26-.95-.02.05-.04.11-.09.17-.19-.82-.93-.43-.83-1.15-.05.15-.1.16-.18.25-.18-.13.08-.74.06-.98-.36.1-.76.81-.89.22.28-.31.96-.58.75-.86,0,0-.09.46-.43.48,0-.5-.17-.02-.81-.12.35-.43-.39-.37.43-.81-.62.11-.4.06-.93-.07.52-.07.24-.76.83-.94-.71.1-.6.8-1.44.66.3-.44.29-1.01,1.02-1.29-.22-.18-.51-.21-.66-.56.06.05-.07.15-.13.21.36-.78-.41-1.6.46-2.15-1.05.31-.31-1.43-1.25-.76,0-.3.4-.81.59-.93-.84.13-.3-.69-.84-.96.44-.2.27-.73.52-1.07-.09.15-.24.24-.47.21.33-.39,0-.27-.42-.56Z"/>
          <path class="cls-1" d="M129.15,135.01c-.16.02-.24.04-.31.05.07-.01.18-.03.3-.06h0Z"/>
        </g>
        <g>
          <path class="cls-1" d="M182.38,112.91c.01-.16.02-.34.03-.49l.44.21c-.19.18-.34.25-.48.28Z"/>
          <path class="cls-1" d="M185.09,100.97c.05-.12.1-.24.15-.35.15.05.3.13.42.2-.19.19-.38.2-.56.16Z"/>
          <path class="cls-1" d="M198.17,133.33c.2-.04.38-.09.53-.15-.15.2-.41.37-.31.47-.12.04-.22-.13-.22-.33Z"/>
          <path class="cls-1" d="M183.67,123.91c.24-.51.65.05,1.03-.27-.21-.41-.54-.04-.89-.09l.83-.68c-.09-.12-.26-.21-.49-.25.24-.23.59-.44.17-.73v.54s-.45-.19-.45-.19l.52-.66c-.25-.35-.55-.48-.86-.56.02-.05.03-.09.05-.14-.02-.23-.1-.42-.18-.6.07-.23.07-.45-.1-.68-.04-.28-.19-.5-.39-.68-.03-.1-.07-.2-.11-.3.51-.15.66-.87.81-1.33-.21.14-.39.5-.71.38.17-.41.53-.8.7-1.19-.21.16-.55.24-.76.31-.27-.46.36-.32.43-.66-.2-.14-.33-.23-.5-.15.24-.41.32-.75.07-1.21,0,0-.11.1-.25.17,0-.2,0-.4,0-.6.33-.35.7-.6.98-1.17.91-.94-.3-2.03.41-2.66.24,0,.34.58.55.15-.48.01-.26-.31-.44-.36.75-.39-.05-.75.46-1.03-.17.05-.31-.26-.45-.48-.58-.04-.13-.59-1.07,0,.99-.59.06-1.37,1.48-1.64l.12.22-.11-.79v.03c-.02-.34.14-.35-.35-.93-.18.15-.24.42-.42.57-.4-.52.57-.74.74-1.14-.42-.09-.28.41-.74.15.03-.33.41-.51.61-.76l-.24-.02c-.27-.92,1.19.04.61-.75.13.06.29.03.41.11-.17-.27-.42-.89-.85-.5.08-.27.37-.5.66-.55.26.33.08.33.47.56.19-.32.34-.65.57-.94.05-.11-.25,0-.31.14-.62-1.65,1.86-1.95,1.28-3.82.25.33.35.07.64.09.11-.46.53-1.01.61-1.47l-.3-.04c.93-.7,1.62-1.08,2.01-1.66.11.05-.28-.25-.43-.2.71-.05.06-1.58.88-.97l-.08.2c.62-.88,2-1.06,2.91-1.5-.13-.64-.55.27-.78-.44.53-.58,1.4-.61,2.04-1.13-.16-.01-.16-.09-.24-.09.57-.7.2.58.77.21-.16-.26-.17-.34-.02-.57l.39.36c0-.08-.16-.43-.32-.52.53.44,1.2-.33,1.65.19,0-.16-.35-.64-.34-.88.3-.29.62-.14.93,0h0c.12-.49.76-.63.61-.65.61-.34.2.3.78.55l-.44.38.93-.07-.42-.21c.36-.32.9.09,1.37-.03l-.15.39c.19.03.38.06.58.11-.06-.71.68-.25.25-1.03,1.01-.5,1.79.33,2.74.37-.17.01-.11-.14-.15-.25.55-.19.91.16,1.24.52-.07-.22-.21-.29-.21-.48.66-.03.41.41,1.12.63-.19-.3-.13-.46.07-.53-.03.26.13.45.26.53-.52-1.44.83-.57.53-1.7.04.28,1.14.98.77,1.53l-.19-.13c-.05.39.22.26.42.31-.1-.08-.2-.17-.2-.26.96.56,2.06.22,3.08.82-.06-.16-.46-.5-.15-.56,1.17-.03,1.59.95,2.49,1.57.34-.85-1.08-.45-.88-1.3,1.1.49,2.11,1.25,2.99,2.21,1.01-.92.78,1.02,1.94.61-.31.32-.11.69.2.94.11-.37.46-.12.53-.39.07.51.69,1.35,1.26.71-.52.67.6.55.39,1.17.58.11.49.9,1.06,1.19-.55.16.16.61.11.9,0-.07-.02-.2.06-.22.51-.14.03.8.43.92.24.03.39-.29.56-.1-.31.21-.24,1.19.34,1.25-.08-.13.08-.22.16-.38.18,1.7,1.59,2.99,1.38,4.87l.5-.48c1.11.77-.74.96-.44,1.73.89,2.08,2.25,4.34,2.14,6.7-.17.19-.24-.07-.5-.06.1.19.63.18.33.49l-.35-.02c1.01.96-.27,3.05,1.16,3.75-.5,1.05.47,1.73-.3,2.99.32.38.57-.47.68.06-.16.39-.33.78-.52,1.16l.05-.06c-1.06,1.08,1.16,2.95.32,4.3l.06-.06c.24-.02.5.28.4.5-.17.07-.25-.09-.44-.23-.5,1.18-.54,1.44-.69,2.38.39-.36.27.41.73.52-.36.19-.48-.21-.84.28-.2.72.13,1.52.13,2.16-.5.11-.49.43-1,.27-.25.73-.6,1.03-.97,1.56l.14.12c-.6-.19-.09.64-.45.44.17.17.29.2.4.34l-.34.03c.21.08.71.48.53.75-.49-.17-.14-.32-.46-.53l.3.57c-.24.08-.62-.54-.55-.79-.48.26-1.07.14-1.79.23l.09.41c-.46-.2-1.01-.17-1.37.12,0-.12-.09-.36,0-.48-.51-.65-.16.66-.72-.05.13.18.33.29.32.53l-1.15-.72c-.07.29-1.02.77-1.51.38.02-.17.23-.36.38-.36l-.31-.23-.45.62-.38-.74-.16.57c-.36-.21-.33-.99-.65-1.02-1.28.06-1.11.32-2.09.66.17-1.13-1.38-.29-1.44-1.12-1.34.57-2.99-.23-4.65-.1l.13.11c-.72.5-.75-.89-1.53-.69l.19.17c-.97.52-2.66.17-3.67-.21.21.14.16.51-.13.52-.28-.18.13-.83-.36-.53.14.09.08.35-.04.38l-.6-.47c-1.29.58-2.65,1.37-4.02,1.39-.18.26.04.41.15.58-1.04.17-2.16,0-3.05.16l.09.65c-.43.12-.55-.87-.93-.17-.1.12.37-.05.61.18-.72.72-.67-.48-1.45-.19l.4.66c-.51.59-.8-.19-1.13-.55-.98-.7-.29,1.52-1.55,1.09-.21-.35-.02-.53-.23-.88-.64.2-.85-.18-1.35-.1-.41,1.06.31.04-.13,1.02.18-.07.33-.1.51-.2-.48.61.44.12.4.77-.41.27-.96-.39-1.32-.64-.09.48.5.11.21.75l-.22-.23c.04.15.03.34.18.34-.15.45-.31,0-.55-.04.04-.25.13-.6.27-.95-.02.05-.05.11-.09.17-.15-.85-.92-.42-.79-1.17-.06.15-.11.16-.19.24-.18-.14.09-.71.09-.98-.36.09-.77.79-.9.21.29-.31.97-.56.76-.85,0,0-.1.46-.43.47.02-.49-.17-.02-.81-.13.38-.44-.38-.38.45-.82-.63.1-.4.06-.93-.08.52-.06.25-.76.84-.92-.71.09-.61.79-1.45.63.31-.43.31-1.01,1.05-1.27-.22-.18-.5-.22-.66-.57.06.05-.07.15-.13.21.37-.77-.4-1.59.49-2.14-1.06.3-.3-1.43-1.24-.77,0-.3.41-.81.6-.92-.84.12-.3-.69-.83-.96.44-.2.28-.72.53-1.06-.09.15-.24.24-.47.2.33-.39,0-.27-.42-.56Z"/>
          <path class="cls-1" d="M188.2,134.98c.07-.16.14-.32.22-.47-.47-.07-.11.09-.22.47Z"/>
          <path class="cls-1" d="M197.48,133.49c-.16.02-.24.03-.31.04.07-.01.18-.03.3-.05h0Z"/>
        </g>
        <g>
          <path class="cls-1" d="M213.44,218.44c-.33.2-.65.4-.98.6.04-.06.07-.11.16-.2.3-.16.56-.28.83-.4Z"/>
          <path class="cls-1" d="M203.7,39.73c-.22-.13-.44-.26-.66-.39.06,0,.1,0,.19.02.18.13.31.25.47.37Z"/>
          <path class="cls-1" d="M252.54,78.38c.16.41.38.94.69,1.62-.1-.02-.19-.04-.29-.05-.08-.09-.17-.2-.24-.32.04.11.07.19.12.3-1.48-.2-3.09-.29-3.57-.72l1.7.06c-5.26-.49-8.18-2.14-12.26-2.4l-.13,1.13c-.09,0-.16-.03-.25-.03-.33-.93-.66-1.84-1.05-2.7l-.28.63c-.42-1.07-.55-1.63-.53-2.11l.2.42-.13-.89c-.04.15-.06.31-.07.47-.25-.54-.5-1.08-.81-1.58.36.97.3,1.38-.03,1.63-.7-1.75-2.17-3.88-1.78-4.67l-.06.12c-1.35-2.13-4.49-6.33-4.59-6.05-.86-1.66-2.29-3.28-2.96-4.3.08-.27.41-.73.11-1.05-.22-.02-.35.02-.42.09-.91-1.35-3.31-2.65-3.43-4.07-1.68-1.04-.2.05-.2.83-1.64-1.04-2.16-3.22-3.32-2.97-1.33-1.79.51.22.3-.63-.96.31-2.98-2.84-5-3.69-.46-.89.88.43-.09-.91-.03.28-.71-.24-1.05-.5l.06-.72-1.71-.15c-.51-.4-1.03-.79-1.54-1.18-.14-.6,1.1.01-1.37-1.96l.18.18c-1.22-.11-2.11-1.89-4.55-3.09.2.19-.17.27-.02.5l-1.34-1.02c.12.1.16.17-.02.15-1.51-.34-1-.83-2.69-1.32.28.2.41.35.48.47-.67-.37-1.37-.72-2.06-1.08l-.35-.34.09.2c-5.19-2.68-10.8-4.93-16.89-6.61-.08-.02-.15-.03-.23-.05,0-.06-.02-.12-.02-.18l.29.1-.27-.41c-.03.1-.02.2-.02.31l-1.45-.53c.13-.28,1.2-.19,1.87-.03.67-.04-2.17-1.55-3.8-2.09-4.48-.98-1.16.8-4.26.35-1.27-.45-2.55-.91-3.85-1.28l-.1.29c-.67.09-.97-.3-1.13-.4.2.48-3.25-.42-4.9-.51l.64-.31c-4.44-1.54-7.27.17-10.81-.53l-2.51-.8-.55.55c-1.47-.38-1.73-.82-4.18-.65-8.55.94-17.85.64-26.32,2.91.08-.14.34-.22.84-.41-7.14,2.88-12.05,1.15-18.33,4.38l.51.05c-.33-.03-1.15.32-1.43.53.34.02.44.03.35.37-.11.4-.56.48-.89.58-.71.21-1.42.43-2.13.65-2.99.91-5.97,1.82-8.96,2.73-.99.3-1.99.61-2.86,1.16-.78.5-1.43,1.19-2.16,1.77-1.27,1.03-2.77,1.73-4.25,2.42-1.16.54-2.35,1.09-3.62,1.17-1.64.11-3.26-.59-4.56-1.59s-2.35-2.3-3.37-3.59c6.64-2.53,12.9-6.07,18.49-10.46,4.6,2.11,9.38,3.8,14.28,5.05-.84.43-1.69.31-2.61.56-.07-.05-.18-.11-.23-.16-1.62-.55-.1.71-2.71-.58-.37-.18-1.09-.55-.77-1.01-1.25-.02-2.68-.71-3.81-1.22l1.55.79c-.29,0-.58,0-.87,0-.16,0-.33,0-.48-.07-.2-.1-.32-.31-.46-.49-.27-.34-.66-.59-1.08-.69.36.34.77.66,1.07,1.04-.56-.15-1.01-.57-1.5-.89.87.58.53.91.28,1.08-3.38-2.13-.13-1.43-.09-1.96-1.04-.42-1.96-.9-2.82-1.4,4-1.84,7.68-3.5,11.71-4.36,1.79-1.82,10.4-2.92,9.54-4.17,3.02-.71,5.56-.93,7.53-.71-.59.21-1.39.21-2.02.26.86.15,4.53-.38,6.06-.66-2.05,0-5.35.27-7.02.09,2.78-.51,6.77-.51,8.33-.63l.6-.85c2.43.24,1.9-.87,4.35-.44l-.42.28c4.32-.56,4.45.21,8.47-.03l-.2-.29c1.38-.2,3.47.39,4.79-.38l-2.63.13c.23-.54,2.24-.9,3.14-1.22,2.82.08,1.02.84,2.42.88.58-.51.14-.27-.85-.74,3.14.05,7.37.3,9.57.99.14-.08-.01-.19-.01-.19,3.26.01,6.06,1.06,8.05.79l-.62-.13c2.65-.5,6.62,1.26,7.28.14,1.25-.08-2.78-.3-.75-.66,3.9.11,2.42,1.34,5.83,1.46-.47-.04-.31-.09-.45-.23,2.42.45,5.64,1.02,8.26,1.75l-.35.04.92.11c-.18-.05-.39-.1-.57-.15,3.51-.4,9.87,2.52,13.82,2.62-1.29.04.77.75.72.93,0,0-.12-.15.05-.18,1.34.38,1.38.81,1.82,1.12-.08,0-.14,0-.2,0,.57.26.75.22,1.19.34-.52-.1-.8-.2-.99-.34,1.23-.05,3.44,1.76,4.2,1.77-.08.25.97.6,2.12,1.05-2.18-1.19-.52-.82-1.4-1.61,3.53,1.24,3.5,2.62,6.99,4.18l2.13.5c.07.79,3.28,2.3,3.06,2.54-.2-.04-.39-.07-.51-.04.35.08.47.07.51.04.68.14,1.57.52,1.64.12,1.21.97,3.42,1.8,3.68,2.56-.44-.26-.94-.43-1.4-.65,2.11,1.11,3.45,2.52,4.79,3.65,1.34,1.14,2.52,2.23,4.03,3.26l.67-.92c2.13,1.3,3.1,3.32,5,4.39-.79-.25-.82-.45.02.93-.69-.61-1.69-2.04-2.9-3.01.69.87,1.37,1.74,1.95,2.7-1.07-1.33-2.38-2.41-3.57-3.63,1.36,1.76,1.31,1.57.33,1.33,2.11,2.24,2.84,1.82,4.6,4.21.86.65.38-.42,1.4.29,1.61,2.08,3.98,3.18,4.77,5.01.48.39-.67-.85-.38-.91,1.02,1.38,1.85,2.29,1.9,2.88l-1.04-1.04c.84.97.67,1.37,2.28,3.2.61,1.3.62,2.27-.28,1.04.3.54,1.34,1.46,1.34.88,2.21,3.09.13,2.1,2.49,4.9.13.29.27.54,0,0-.1-.23-.19-.49-.06-.41.54.73.94,1.38,1.21,1.95-1.6-2.8,1.31.39-.87-2.77.73.03,1.63,2.42,2.47,3.35.63,1.8-.64.61-.41,1.56.17-.12.55.55,1.03,1.33l-.81-.56c.35.68.71,1.35,1.03,2.22l-.55-1.46c.8,1.46,2.75,3.35,3.55,6.24-.14-.8-.44-2.39.57-.67,1.03,3.11.48.62,1.52,2.17.64.94.59,2.64,1.02,3.7,1.13,2.78,2.11,5.62,2.93,8.5,1.64,5.73,2.72,11.62,3.2,17.56-4.26-.2-8.99-.59-11.89-3.72-1.58-1.69-2.36-3.95-3.11-6.14-1.34-3.92-2.67-7.84-4.01-11.77-.91-2.67-1.82-5.33-2.72-8,3.24-.09,6.48.16,9.67.75,1.7.31,3.45.76,4.74,1.92,1.28,1.15,1.91,3.21.95,4.65M217.59,49.18c-3.01-2.57,1.19-.35-2.14-2.37,1.02.93.3.69-.24.5.79.63,1.64,1.18,2.38,1.87Z"/>
          <path class="cls-1" d="M224.25,55.79c.91.82.79.6.28-.33-.04.14-1.24-1-.28.33Z"/>
          <path class="cls-1" d="M181.43,18.42l-.55.5c1.48.52,1.44-.17.55-.5Z"/>
          <path class="cls-1" d="M126.36,15.75c-.63,0-1.83.4-3.04.61.98.17,2.49-.23,3.04-.61Z"/>
          <path class="cls-1" d="M72.34,213.9c.09.09.28.22.44.34-.12-.08-.26-.17-.39-.25l-.05-.09Z"/>
          <path class="cls-1" d="M69.7,212.23c1.05.69,1.98,1.29,2.69,1.76l.17.31c-1.37-.52-2.17-1.27-2.86-2.06Z"/>
          <path class="cls-1" d="M187.62,229.14l-.5-.22c.03.1.09.18.15.27l-1.74.27c-.02-.31,1.1-.77,1.84-.97.64-.37-2.97-.26-4.83.08-4.96,1.18-.8,1.26-4.19,2.21-1.52.14-3.03.28-4.55.33v.31c-.68.32-1.15.06-1.35.02.38.4-3.62.76-5.45,1.01l.61-.47c-5.18-.25-7.96,1.87-12.08,1.62l-2.89-.52-.57.61c-1.69-.29-1.99-.76-4.73-.51-9.68,1.13-19.99-1.01-29.68-2.07.14-.1.44-.09,1.04-.07-8.76-.09-12.81-4.08-20.44-5.23l.44.36c-3.7-1.32.44.39-2.37-.21-.3-.85-4.58-2.09-6.54-3.24.27.27,1,.54,1.57.87-.45,0-.75.33-1.76-.22-.98-.94-2.72-1.87-4.65-2.79-1.89-1.02-3.9-2.17-5.59-3.18-.32.1-1.29-.15-2.42-.44-1.1-.35-2.34-.82-3.3-.97-.26-.37-.7-1.06-1.07-1.71.16.06.32.11.5.17-.12-.1-.18-.15-.28-.22.72.48,1.08.74.89.66,1.58.47.1-.36.48-.76-1.1-.67-3.23-2.24-3.71-2.06-.64-.41-1.07-.69-1.75-1.12-.34-.37-.72-.72-1.21-1.04l.17.2c-.12,0-.24-.03-.37-.07-1.07-.68-2.19-1.72-3.2-2.78-.98-1.1-1.77-2.32-2.4-3.14,1.04,1.89-.9.21-1.24.57-.11-.24,1.68,1.65,4.22,3.61-.22-.1-.42-.14-.58-.04-2.52-1.36-3.22-3.54-6.46-5.99.15.22.45.65.18.65-1.16-.87-1.7-2.21-1.72-2.63-.59.07-2.92-2-3.79-3.27-.58-1.26-.26-1.26-1.77-3.16l.37,1.06c-1.95-2.11-1.01-2.17-2.66-3.88.68.67.44.95-.04.42-1.65-2.49-1.39-2.77-1.99-4.9l-.24.62c-.54-1.16-1.32-2.81-2-4.15-.6-1.39-1.18-2.44-1.51-2.3,1.38.16-2.13-5.06-2.88-7.15.27.7.11.93.03,1.05-1.26-4.47-3.51-8.63-4.95-13.09l-.97-.49c-.63-2.42.74-3.52,0-6.07l-.12,1.02c-.99-4.63-1.39-6.5-2.2-10.25l-.53.16c.06-1.41-.17-3.11-.11-4.51-1.87-2.98-.36-12.43-1.74-18.19l1.02-.36c0-2.21.25-5.02-.5-6.09v.49c-.81.19.05-2.21.02-3.59.16-1.03.74-2.03.83-1.13-.28-5.89,1.83-14.33,1.72-18.07.75-2.84,1.84-5.21,2.7-7.68.95-2.45,2.09-4.87,3.04-7.86l-.14.03c.67-2.01,2.13-6,1.35-6.35.93-2.09,2.26-3.52,3.36-5.15,1.12-1.64,2.28-3.34,3.61-5.69l-.9.82c.59-1.25,2.11-2.89,2.48-3.29.24-.41-.08-.21-.22-.22.43-1.28,1.3-1.61,1.98-2.38l-.49.17c2.06-3.86,7.23-8.44,11.16-12.24-.8.63-.63.03-.43-.34,1.16-.43,2.83-1.73,4.43-3.11,1.73-1.23,3.41-2.52,4.38-3.13l-1.35.57c.94-.55,1.57-1.02,2.04-1.44,1.81,1.36,3.78,2.71,5.46,3.88.41-.06,1.79.48,3.28.99-.57.4-1.03.78-1,1.03-.55.45-.88.8-1.4,1.33-.4.22-.8.49-1.19.86l.22-.11c-.02.11-.07.22-.13.33-.81.83-2.02,1.55-3.15,2.3-1.12.74-2.25,1.48-3.06,2.01,1.84-.84.19.89.54,1.24-.17.14,1.44-1.58,3.59-3.56-.13.17-.2.34-.12.51-1.44,2.14-3.45,2.64-5.74,5.55.19-.14.58-.42.6-.17-.73,1.07-1.8,1.72-2.22,1.75.16.58-1.39,2.88-2.42,3.81-1.02.73-1.06.48-2.31,2.29l.84-.58c-1.27,2.26-1.64,1.43-2.65,3.32.38-.77.72-.63.41-.07-1.63,2.15-1.76,2.14-3.36,3.44l.64-.03c-1.55,1.74-4.08,5.35-3.44,5.73-.68-1.16-2.82,4.25-3.44,6.16.29-.63.56-.65.69-.67-2.38,3.59-3.08,7.96-4.3,12.02l.61.87c-.59,2.14-2.31,2.37-2.89,4.77l.6-.77c-1.01,4.21-1.35,5.95-1.69,9.44h.55c-.41,1.21-.61,2.76-1.02,3.99.32,1.04.22,2.77.03,4.78h-.14s-.04.09-.11.14c-.19,0-.23-.03-.49-.06.08.03.61.08.27.09l-.34-.04c.9.21-.57.35.74.56,0,.01,0,.03,0,.04-.29.09.38.24-.38.33.12.03.24.03.34.02,0,.04,0,.07-.01.11l-.2.04h.05c-.53.03-.21.16.12.28-.02.16-.03.32-.05.48-.08.04-.11.09-.16.15.07,0,.09,0,.14.01,0,.03,0,.07,0,.1-.04,0-.08,0-.12,0-.01.03.06.06.11.09,0,.09-.02.18-.02.27-.08,0-.19.01-.4,0-.04.12-.25.17-.25.32h.19c-.68.02.34.16-.05.17.22,0,.32,0,.48.01,0,0,0,0,0,.01l-.17.04s.11,0,.17,0c0,.03,0,.05,0,.08-.12-.01-.24-.03-.3-.05,0,.15-.3.28-.2.42h.41s-.04.05-.05.07c-.03,0-.02,0-.06,0-.23.05.03.08.15.12,0,.01,0,.03,0,.04-.11,0-.22,0-.31,0-.56.06.67.04.07.11.09,0,.16-.02.24-.03,0,.02,0,.04,0,.07l-.27.08c.07,0,.16.02.26.03,0,.05,0,.09,0,.14l-.13.04h.13s0,.02,0,.02c-.12,0-.25-.01-.25-.03-.05,0,.08.03.25.05,0,.02,0,.05,0,.07h-.03s-.02,0-.02,0h-.13s0,0,0,0c-.26,0-.46,0-.18.07.03,0,.09-.01.16,0,.01,0,0,0,0,0-.07,0-.1.01-.09.02.04.02.06.02.1.03,0,0,0,0,0,0,0,0,0,0,0,0,.06.02.11.04.16.05,0,0,0,.02,0,.02-.09,0-.2-.01-.28,0,.19,0,.19.03.27.06l-.46-.04s0,.04-.11.07l.19-.04s.24.06.38.11c0,.04,0,.08,0,.11,0,0,0,0,0,0,0,0,0,0,0,0-.02.4-.06.79-.07,1.19-.03,0-.05.01-.08.02.02,0,.05,0,.08,0,0,.01,0,.02,0,.03-.16,0-.28-.01-.17.02.04,0,.11,0,.17,0,0,.01,0,.02,0,.03l-.37.03c.14.06.26.12.37.19,0,.23,0,.46,0,.69,0,0-.03.01-.03.02h.03c0,.07,0,.14,0,.21,0,0-.05,0-.04.02h.04s0,.06,0,.09c-.04,0-.09,0-.13,0-.37.04-.17.07.13.1,0,.05,0,.11,0,.16-.09,0-.16,0-.27,0,.19.12-.34.12-.15.24.24.02.35.02.42.02,0,.02,0,.04,0,.06-.01,0-.02,0-.03,0,0,.02.03.01.03.02,0,.08,0,.17,0,.25-.04,0-.05.02-.12.02.06,0,.08,0,.12,0,0,.02,0,.03,0,.05-.2.03-.51.06-.64.1.1.01.24.01.37.02v.07c-.32,0-.6,0-.59.05,0,0,.31-.06.58-.03v.02s-.04.02,0,.03v.14c-.05,0-.05,0-.1,0,.04,0,.05,0,.09,0v.14c-.11,0-.22.02-.37.01.16,0,.24,0,.36,0v.12c-.07,0-.09,0-.17,0,.04,0,.1.02.15.02l-.03.3c-.09.02-.18.03-.35.04.19,0,.26,0,.35.02l-.09.9.19-.89c.22.04.11.1.38.11,0,.02,0,.04,0,.06-.14.02-.3.04-.4.05.22,0,.34,0,.4.02,0,.05,0,.11.02.16-.12.03-.12.07-.31.1.07-.01.2-.01.31-.02,0,.03,0,.06,0,.08-.17,0-.31,0-.5.01.12.03.3.03.51.02,0,.01,0,.02,0,.03l-.48.05c.09.02.25.03.48.03-.25.03-.61.06-.2.1l.03-.07h.19s0,.05,0,.06l-.31.05c.09.02.22.01.32.02,0,.01,0,.02,0,.04h0s-.26,0-.26,0c0,.05-.03.11-.1.16-.18.02-.23-.01-.49-.02.08.03.61.04.28.07h-.34c.93.13-.61.4.84.5-.54.14.4.22-.41.39.31.05.59-.06.67,0l-.53.15h.05c-.58.08-.13.19.23.3l-.63.21c0,.33,0,.68,0,1.03-.06.06-.13.12-.12.21h.12c-.25.04-.13.07,0,.1,0,.53,0,1.05.03,1.55,0,.02,0,.04-.09.07l.09-.03c.02.55.07,1.07.17,1.51h-.04s.03.02.04.02c.08.35.22.62.38.84,0,0,0,0-.01,0h.01s.03.1.06.14v-.05s.03.02.16.03c.06,0,.09-.02.16-.04,0,.02,0,.04,0,.06-.2.03-.43.06-.4.11l.4-.04s0,.05.01.08c-.17.02-.35.04-.5.06-.5.1.06.08.5.09,0,.04,0,.09,0,.13-.19.02-.37.03-.61.05.19.1-.33.15-.13.25.92,0,.36-.04.74-.05,0,.03,0,.07,0,.1-.12,0-.24,0-.35,0-.03.08.1.04.35,0,0,.02,0,.04,0,.06-.18.08.02.15-.4.22.15,0,.19-.01.31-.02.03.04-.62.13-.8.2.27,0,.74-.05.88-.03,0,.02,0,.03,0,.05-.41.04-1.11.05-1.09.13,0,0,.33-.09.62-.07-.25.09.06.03.47.05,0,.01,0,.02,0,.03-.21.05.2.05-.6.11.45-.01.46-.01.6,0,0,.01,0,.02,0,.03-.27.04-.38.11-.86.15.38-.02.62-.05.86-.08,0,.03,0,.07,0,.1-.17.03-.36.06-.66.08.17.02.45.02.53.06-.04,0,.06-.02.14-.03h0c-.41.13,0,.23-.86.34.91-.08.45.09.86.07,0,.02,0,.04,0,.06-.14.03-.31.06-.41.08.27-.02.37-.02.42,0,0,.05.01.1.02.15-.12.04-.12.08-.3.12.07-.02.2-.03.31-.04,0,.03,0,.06,0,.08-.17,0-.31.02-.5.05.12.03.3,0,.5-.01,0,0,0,.02,0,.03l-.47.08c.08,0,.25,0,.47,0,0,0,0,0,0,0-.25.05-.59.1-.19.11l.02-.07h.16s0,.04,0,.06l-.26.06c.07,0,.17,0,.25,0-.07.87-.45,1.67-.64.92.39,2.67.86,5.91,1.29,8.93.54,3,1.23,5.73,1.97,7.25.43,2.61.81,4.95,1.2,7.31.56,2.33,1.09,4.75,2.16,7.44l.09-.11c.87,1.76,2.61,5.26,3.38,4.9,1.64,3.75,1.64,6.77,4.61,10.81l-.28-1.09c.79.99,1.48,2.93,1.66,3.42.24.37.22,0,.28-.12.9.83.95,1.63,1.43,2.46v-.48c2.7,2.89,5.65,8.54,9.51,11.98-.61-.72-.03-.6.34-.43.43,1.04,1.65,2.63,3.1,3.97,1.47,1.32,3.01,2.57,3.78,3.33l-.8-1.13c2.85,3.17,3.46,1.38,6.49,4.22l-2.28-.87c1.5.81,2.59,1.76,2.03,1.89,1.83.8.55-.41,3.14,1.03.22-.13-1.73-1.24-.73-1.02,1.28.5,2.61.89,3.89,1.34h0c-2.73-.86,1.52,1.59-.35,1.13,2.21.83,0-1.07.35-1.13.1.03.16.05.28.09l-.26-.09c.15,0,.6.22,1.72.91-.84.88,2.93,1.65.63,1.71,5.25,2.49,10.02,3.56,14.51,5.52,2.23-.41,9.37,2.63,9.26,1.06,2.68.58,4.77,1.41,6.34,2.27-.56,0-1.22-.29-1.75-.48.63.52,3.9,1.17,5.26,1.42-1.73-.68-4.57-1.44-5.83-2.32,2.4.65,5.74,1.83,7.1,2.2l.75-.66c2.01.85,1.82-.34,3.81.68l-.42.18c3.85.33,3.81,1.19,7.42,1.51l-.14-.31c1.24-.05,3.05.83,4.29.16-.78-.02-1.57-.09-2.35-.15.27-.5,2.07-.63,2.89-.89,2.47.21.85.89,2.09,1,.54-.48.13-.26-.72-.78,2.77.31,6.5.41,8.51,1.01.12-.08-.02-.19-.02-.19,2.88-.22,5.51.54,7.25-.07l-.57-.02c2.24-.88,6.07.07,6.39-1.25,1.06-.37-2.46.37-.8-.47,3.34-.83,2.4.78,5.34-.08-.4.11-.28.01-.44-.08,2.17-.3,5.05-.74,7.44-1.15l-.27.17.79-.25c-.17.03-.36.05-.52.08,1.35-.77,3.55-1.32,5.82-1.84,2.25-.6,4.52-1.38,5.95-2.45-.9.73.97.2,1.04.37,0,0-.17-.06-.07-.18,1.17-.42,1.46-.09,1.96-.08-.06.04-.1.07-.14.12.57-.1.65-.27,1.02-.46-.4.26-.66.36-.88.34.82-.71,3.33-1.02,3.85-1.49.12.23,1.02-.23,2.04-.69-2.18.63-.9-.22-1.98-.2,2.98-1.44,4.03-.42,6.98-2.35l1.44-1.37c.71.45,3.42-1.35,3.46-1.15-.11.16-.2.31-.22.44.2-.27.24-.39.22-.44.37-.54,1.01-1.15.7-1.4,1.25-.64,2.74-2.14,3.47-2.11l-1.03.95c3.45-2.57,5.95-3.63,8.23-6.12l-.81-.8c1.37-1.73,3.33-2.4,4.21-4.2-.19.74-.38.77.88.02-.53.65-1.83,1.55-2.8,2.54l2.56-1.65-3.49,3.07c1.71-1.08,1.53-1.07,1.27-.15,2.26-1.77,1.77-2.57,3.98-4.18.57-.8-.44-.36.17-1.31,1.83-1.59,2.26-4.03,3.81-4.96.26-.5-.65.74-.77.47,1.06-1.11,1.73-1.99,2.23-2.18-.21.39-.43.78-.69,1.14.71-.92,1.14-.84,2.19-2.81.94-.9,1.82-1.19,1.03-.03.38-.43.84-1.63.3-1.45,1.93-2.87,2.03-.68,3.25-3.88.18-.23.32-.46.03-.08-.01.03-.02.04-.03.08-.14.18-.32.36-.31.22.35-.77.69-1.38,1.04-1.84-1.56,2.52-.33-1.26-1.89,1.88-.33-.64,1.21-2.36,1.55-3.43,1.2-1.28.85.26,1.54-.35-.18-.08.18-.69.51-1.46v.92c.38-.61.65-1.26,1.12-1.98l-.77,1.21c.59-1.44.93-3.87,2.48-6.13-.48.58-1.42,1.71-.87-.02,1.49-2.56.12-.7.43-2.36,1.13-2.67.94-.17,2.21-4.29.16-.43.26.06.21.54.91-2.8,1.51-4.3,2.06-7.12-.24,1.22-.37,2.2.32.64-.58.58.38-2.34.4-3.47l.28-.23c-.05-.92-.35-.02-.59.65-.06,0-.17.16-.31.58.02.11.16-.2.31-.58.09,0,.08.26-.09.77-.6,1.29-1.23.58-.76-1.57.72-2.24,1.24-1.74,1.37-1.29.44-3.15,1.72-2.68,1.96-5.75.11-.7-.45-3.14-.2-5.33.69-1.06-.03,2.78.61,1.58-.66-3.77,1.7-7.45,1.17-12.35l-.65.58c-.02-1.12-.05-2.21.04-3.47l.32,1.66c.16-1.12.08-3.75-.42-2.89.58-2.52.2-3.06.02-5.4.09,2.48.09.04-.21,1.86-.36-2.6-.15-2.8-.04-4.61-.23.31-.56-.62-.62-1.32.27-1.7-.07-4.58-.05-6.95l-.19.03c-.32-3.74-1.61-7.59-2.13-11.35,2.25.08,4.64.03,4.69-.57,3.36.47,5.9,1.25,9.03,1.69.32.88,1.39,3.06,1.85,5.35-.32,1.33-.86-2.97-1.08-1.5,2,3.85.31,8.39,1.38,13.65l.6-.7c.14,1.24.2,2.47.15,3.88l-.39-1.83c-.12,1.25.07,4.18.54,3.22-.2,1.26-.25,2.08-.23,2.81v.03c0,.94.11,1.77.17,3.23,0-2.79-.09-.05.29-2.09.25,2.94.03,3.17-.16,5.19.24-.33.55.76.49,1.54-.49,1.88-.67,5.13-1.14,7.75h.19c-.77,4.38-.65,9.32-2.25,13.58-.02-.06-.02-.16-.02-.25v.12c-.28-1.64-1.12,3.31-1.83,4.53.07.33.28.53.07,1.28-.56-.11-.75,1.58-1.18,2.11-.26,1.52.76.03-.1,2.52-.39.95-.71.96-.87.78.09.61-.27,2.27-.67,3.61.3-.39.37-1.18.51-1.46.34-.07-.08.78.29.89-.38,1.19-.66.29-1,1.82l.9-1.2c-.1.63-.54,1.31-.68,1.59.22-.44.42-.57.6-.57-.22.56-.43,1.13-.66,1.69-.47.12-.47-1.24-.82-1.23-1.05,3.23-2.54,5.5-3.78,7.81l.7-.21c-.66,1.11-1.05,1.6-1.47,1.91l.24-.46-.66.72c.15-.07.29-.16.43-.26l-.91,1.75c.69-.92,1.01-1.18,1.43-1.06-1.07,1.83-2.35,4.44-3.29,4.51h.14c-.62,1.24-1.67,3.14-2.52,4.73-.94,1.52-1.71,2.72-1.56,2.72-.98,1.16-1.93,2.58-2.75,3.65-.88,1.02-1.57,1.72-1.86,1.53.31-.3.62-.51.97-.58-.3,0-.83-.22-1.13.17.02.22.07.35.15.41-1.3,1.23-2.27,4.22-3.87,4.49-1.16,1.83.06.21.9.1-1.18,1.85-3.54,2.56-3.34,3.79-1.98,1.56.26-.56-.64-.28.35,1.13-3.32,3.24-4.75,5.16-1.04.39.66-.88-.97,0,.28.07-.42.73-.77,1.06l-.73-.18-.72,1.75c-.58.44-1.19.87-1.79,1.3-.64-.02.44-1.08-2.53.82l.26-.13c-.66,1.32-3.07,1.42-5.7,3.59.93-.7.55,0,.95-.05l-1.74.78c.16-.06.25-.07.13.08-1.21,1.26-1.35.53-2.9,1.75.49-.19.72-.19.85-.13-.76.41-1.57.78-2.35,1.17l-.63.15.26.04c-5.97,2.96-12.38,5.48-19.37,7.35-.09.02-.17.04-.26.07-.04-.05-.09-.09-.12-.14l.35-.06ZM29.75,125.99l.05.97.14-2.07-.19,1.1ZM126.3,222.75c.8.41,2.2.44,2.77.19-.55-.13-1.67-.08-2.77-.19ZM178.17,220.08l-.22.68c1.41-.17,1.07-.78.22-.68ZM244.52,97.98c.21.71.35,1.58.53,1.44l-.53-1.44ZM247.49,118.16c.3-.16.44,1.07.49-.18l-.49.18ZM260.97,129.47c-.3.16-.39-1.23-.5.17l.5-.17ZM259.13,107.17v-.61s-.16-1.7-.16-1.7l.16,2.31ZM258.66,150.5l-.17,1.71c.13-.82.4-1.78.17-1.71ZM247.8,138.81l.12-.54c-.1.7-.29,1.38-.45,2.07l.33-1.52ZM235.06,198.93c.73-1.15.52-.97-.36-.22.15,0-.87,1.54.36.22ZM225.49,208.93l2.46-2.32c-3.3,2.95-.13-1.22-2.94,2.02,1.19-.96.79-.24.48.3Z"/>
          <path class="cls-1" d="M225.92,57.98c.21.32.33.63.31.96-.3-.46-.46-.81-.31-.96Z"/>
          <path class="cls-1" d="M258.38,153.34l.04-.35c.01.05.03.06.04.14-.03.08-.05.15-.07.21Z"/>
          <path class="cls-1" d="M175.95,15.98c4.77-.52,9.62-1.05,14.49-1.52l.96-.75c-2.99.21-7.26,1.94-8.89,1.01l1.46-.28c-.13-.17-1.08-.66-3.03-.05-.62.16-.98.67-.13.56l-1.51-.02c.66-.59,4.35-1.14,6.67-1.53-.71.28-2.49.64-1.91.91,2.03-.44,4.03-.88,5.99-1.3.29-.11.61-.2,1.01-.27-.03.04-.04.07-.05.1.22-.03.44-.06.68-.09.23-.04.53-.07.98-.09l-.98.09c-.31.06-.48.14-.59.29-.15-.03-.14-.11-.09-.2l-.95.16c-.8.29-1.26.67-1.63.91,2.27.06,1.64-.52,3.34-.73.67.15,1.12.25.71.45,2.1-.41,3.8-.6,6.07-.48,0,0-2.11.48-1.31.71.33-.03.67-.05,1-.08,3.42-.57,4.43-1.2,8.59-1.71,5.21-1.06,10.11.44,13.75.02.21-.22-2.7-.56-.33-.58-.44.45,1.4.38,1.5.57,2.65-.5,3.8.48,5.65.28-.45.1,1.02.49,1.98.84.05-.06.1-.12.27-.19l-.24.19h-.02c-.38.51,2.75.76-1.08.88,1.76-.14,3.73.32,5.26,1.09.62.32,1.21.69,1.65,1.12,0-.03,0-.06,0-.1.06-.13.13.29.24.31-.06-.08-.17-.14-.25-.22-.01.13-.02.26-.02.39,0,.33,0,.67-.21,1.06l-.06.38.3-.38c.19-.24.59-.5.63-.74,0,.24-.39.5-.56.75-.75,1.18-1.95,2.45-2.85,3.21l.13-.11c.4-.37,1.16-1.06,1.97-1.99-.6.72-1.38,1.49-1.97,1.99-1.3,1.12-1.41,1.43-3.52,2.39.66-.71,1.72-1.62,2.32-2.39-1.85,1-2.92,3.16-4.81,4.47-.16-.4,1.85-1.49.99-1.51-1.36.87-2.28,1.95-3.46,2.86l.04-.31c-3.61,1.76-.65,1.85-3.55,2.76.15.07-.08.39.14.41.22-.08.41-.14.45-.12-.24.1-.37.13-.45.12-1.05.38-3.43,1.36-1.45-.22-.88.56-1.82,1.25-2.42,1.81.13.07.24.15.37.23.47-.18.69-.29,1.11-.19-.11.07-.23.15-.34.22-.52.18-1.05.36-1.54.54-1.61.59-3.17,1.53-4.63,2.63-3.33,1.61-6.45,3.79-9.95,5.55.06.02.12.04.19.06-.02.01-.04.02-.06.03-.08-.02-.13-.02-.21-.05-.18.09-.36.19-.54.28.03.03.07.06.11.09-.93.5-1.85,1.11-2.75,1.78-.25-.16-.53-.32-.89-.47-.59.19-1.18.39-1.8.54.92,0-.35.53-.89,1.06-2.23.9-5.52,2.44-7.65,3.11l.54-.52c-5.11,2.56-8.57,4.46-12.12,5.75-.13.17-.11-.35.49-.69-2.41,1.48-6.07,1.3-6.4,2.52l.98-.3c-5.18,1.84-10.6,4.71-15.9,6.77-1.46-.11,3.05-1.19,1.71-1.47-3.78,1.14-7.37,2.97-11.49,4.18.63-.3.46-.32.76-.46-4.16,1.03.64.42-2.78,1.51.09-.35-.1-.36-1.28-.12l-.84.8c-.19-.02-.29-.38.17-.69-1.31,1.11-5.98,2.24-6.99,3.19-.35-.04.32-.86-.22-.92-1.87.42-3.04,1.07-4.19,1.67.07.3-.63.51-1.54.76-.67.29-1.41.55-2.34.73.71-.31,1.59-.53,2.34-.73.54-.23,1.03-.49,1.54-.76h0c-1.41,0-4.51,1.05-3.87.77-3.33.85-.41.49-2.8,1.62l2.7-.56-4.58,1.57,1.75-.85c-2.19.43-4.22,1.61-6.7,2.33h1.23s-2.77,1.04-2.77,1.04c-.48-.6-3.67.91-2.35-.34-5.19,1.15-8.31,2.92-12.87,4.27.26-.12.08-.18.18-.3-2.85.6-4.44,1.43-6.04,2.22.29-.31.94-.55.9-.74-3.34.86-1.92.93-5.55,2.09.95-.55.59-.62-.44-.44.22.22-.58.61-1.25.86,2.43-2.08-4.28.48-2.8-1.06-.1.37-5.71,2.32-3.93,2.49l.98-.34c.21.35-1.2.53-2.23.8-.71.26-1.37.45-.41.12.13-.04.27-.08.41-.12.52-.19,1.07-.41,1.06-.49-5.14,1.69-10.74,2.53-16.62,4.1.49-.25,2.83-1,1.28-.8-1.91.32-3.53.69-5.07,1.08-.16.32-.26.68-.4,1.01-.55-.04-1.1-.07-1.66-.09-.17,0-.35,0-.53,0,.04-.09.08-.18.12-.27-.34.09-.68.19-1.01.28-.24,0-.48,0-.72,0,.34-.13.61-.27.62-.43-1.01.22-2.06.43-3.09.65-1.35.18-2.68.46-3.97.83-2.14.44-4.31.86-6.54,1.28-.04.12-.09.26-.14.38-.25.05-.5.06-.75.12-.87-.03-1.74.07-2.6.15,0-.01,0-.02,0-.03-.09.02-.18.03-.27.05-.67.07-1.32.2-1.97.34-.17.03-.33.06-.51.09-2.61-1.07-6.93,1.17-11.48.26.46.43-1.81.72-4.31.62h0s-.37-.01-.37-.01c-1.21-.05-2.46-.18-3.42-.34,1.15.16,2.29.27,3.42.34h.38c.87-.31-1.75-.44-1.01-.67-1.17.13-3.06.16-5.3-.28-.75-.16-1.46-.35-2.06-.55-.28-.12-.62-.17-.79-.34.27-.49.52-.95.75-1.38.11-.2.21-.39.31-.57.06-.14-.08-.07-.11-.12-.1-.03-.18-.06-.26-.09-.14-.05-.2-.07-.18-.06-.13-.05-.24-.09-.36-.14l-.29-.11c-.09-.04-.06.06-.04.11,0,0,0,0,0,0-.05.07,0,.14-.04.18,0-.06.02-.12.02-.18l-2,.93c.02.07.03.15.06.21h0s-.04-.06-.05-.1l-.02-.06v-.02s-.01-.01-.01-.01h0s0,0,0,0h0s.03-.01.03-.01c-.32-.86-.08-2.12.48-3.34.56-1.27,1.71-2.72,2-3.4-.52.49-1.45,1.54-2.12,2.32.68-1.06,1.86-2.36,2.28-2.72-.02.11-.1.26-.16.4,2.04-1.92,3.92-4.47,6.7-6.5-1.27.36,2.43-2.37,3.3-3.27-.26.24-.77.74-.59.69,1.07-.27,2.86-2.68,4.57-3.56.81-.34.11.52,1.27-.25-.2-.34,3.74-3.57,5.58-4.21-.73.47-.63.64-.99,1.06,2.87-2.17,6.05-4.02,9.22-5.95l4.79-2.86,2.06-1.26c.16-.11.3-.22.41-.32.2-.2.35-.32,0-.41.56-.09,1.06-.09,1.43-.06.89-.32,1.02-.88.77-1.02-.25-.17-.76-.05-1.25.15-1.03.42-1.94,1.22-1.8,1.14.05-.06.06-.12-.01-.15-.08.02.1-.07-.2.04l-1.08.38-2.16.78c-2.88,1.05-5.75,2.13-8.57,3.29-5.65,2.31-11.15,4.93-16.08,8.06-.64.6.54-.06.8.1-.91.44-1.43.14-2.43,1.13l.44.13c-2.5.98-5.63,3.22-8.36,5.53-2.75,2.31-4.96,4.7-6.64,5.73-1.22,2.06-2.24,3.73-2.8,5.62-.26.94-.44,1.94-.3,2.99,0,.84.6,2.03,1.31,3.03.53,1.59-1.41-1.43-.43.6.97,1.36,2.33,2.38,3.79,3.22l-.26-.11c2.23,1.01,5.13,2.63,8.72,3.78,3.53,1.19,7.52,1.97,11.01,1.77l-.3.04c-.18.23,1.25.59,2.38.55.4-.16-.36-.26-1.02-.5,4.68-.17,6.63-.28,9.41-.46,1.62.17,3.26.16,4.88,0,0,.09-.02.21-.01.3.21.04.39.09.43.17.96-.31.04-.41.74-.64.45-.07.9-.12,1.34-.2.15-.03.32-.08.48-.12,3.8-.32,7.36-.35,10.58-.57.04-.21.07-.39.1-.53.82-.05,1.65-.11,2.48-.24,0,.01-.01.03-.02.04.09-.03.15-.06.23-.09.86-.14,1.68-.39,2.46-.72,3.61-.54,6.13-1.07,11-1.91l.18.16c1.4-.91,4.95-.54,5.93-1.11-.11.26-.69.47-.51.63l2.52-.7c-1.17.44-1.74,1.2.38.86,2.1-.89-.66-.2.33-.79l.78.48c1.64-.39,1.96-1.18-.09-.97,5.63-1.1,11.09-2.6,16.09-3.67l-.44.52c2.72-.8,6.43-1.7,8.15-1.78.05-.13.67-.52.19-.54,3.13-1.37.52.57,3.93-.94-.84.38-1.94.75-2.03,1.02l6.54-2.26c.15.28,4.38-.18,7.11-1.24.06-.19-.81-.18-1.53-.02l1.75-.66,1.58.28,2.42-1.35-.05-.13.52-.14-.47.27.21.55c1.88-.68,2.41-1.64,3.97-2.05,5.88-1.41,4.76-.86,9.02-1.61.11-1.22,6.49-2.09,7.26-3.22,5.7-1.03,13.36-4.27,20.44-6.74l-.54.31c3.18-.67,3.1-2.1,6.39-3.17l-.74.48c4.36-1.05,11.34-4.57,14.98-6.71-.72.5-.17.66,1.05.08.95-.67-1.34-.27.92-1.05-.49.34.03.38.53.16l1.9-1.47c5.71-2.17,12.38-4.95,17.83-8.17,1.13-.37.47.21.31.51,1.89-1.06,3.7-2.19,5.49-3.32-.03-.02-.06-.04-.09-.05.19-.07.38-.11.57-.19,2.2-.9,4.51-2.37,6.27-3.95.01-.01.03-.03.04-.04.06-.03.12-.06.18-.09l.62.27c.9-.55,1.09-.93,1.34-1.29.36-.19.73-.38,1.09-.57-.46.33-.94.71-1.15.97,1.8-.87,2.37-1.35,2.78-1.81.25-.13.49-.26.75-.39,2.08-1.05,4.29-2.82,5.86-4.54.27-.3.68-.78,1.08-1.31,1.58-.83,2.64-.24,5.87-3.56.51-.92-.58-.2-.09-1.11,1.65-1.31,2.46-2.17,3.16-3.07.72-.89,1.43-1.77,2.72-3.35,2.11-1.17-1.16,1.73,1,.35-.63.85-1.44,1.57-2.14,2.35,1.08-.88.72-.37.18.37-.6.71-1.41,1.62-1.02,1.69,1.69-1.33,3.25-4.25,4.34-6.63.52.28-1.61,2.66-.36,1.98.19-.43.42-.84.59-1.28-.05.41.04.55-.42,1.23.71-.16.93-1.39,1.49-2.59-.19-.19-.55-.28-1.06-.06.07-.02.17-.08.32-.23.28-1.33.79-2.94,1.04-4.52.1-.78.08-1.55.05-2.23-.18-.65-.28-1.26-.55-1.67.26.24.2,0,.27-.14-.48-1.32-1.57-2.3-3.08-3.29-.52-.93,1.34-.52-1.45-2.19-.73.1.23,1.27-2.16.13,0,0,2.27.7,1.27-.09-2.6-.83-.63-.59-2.89-1.87-1.57.07-2.66-1.04-3.2-.15-.76-.79-.56-.51-2.25-1.32.76.52-3.52.19-3.44.8-.71-.76,3.17-.6.83-1.52-1.69.3-4.83.4-5.09,1.14-1.27-.17-1.85-.47-3.85-.52.31.03.7-.12.9-.19-3.54.52-8.81.42-10.71,1.56.59-1.22-7.52.83-4.96-.54-1.48.24-3.73,1.06-4.2,1.36,0,.03.03.05.02.09-.18.03-.14-.02-.02-.09.01-.88-3.69.42-5.38.26-.73.63-3.4,1.01-4.94,1.65.69-.26,1.04-.49.74-.66-1.72.74-1.34.32-2.96.26-2.37.82.59.52-.79,1.26-2.14.31-.44-.45-.9-.7l-2.93,1.58c-.65.07-1.14.03-1.45-.14-1.02.5-1.9,1.1-3.52,1.09l2.67-.7-1.13-.16-3.05,1.34c-2.13.26-3.03.14-3.39-.15,0,0,0,0,0,0-.36.18-.61.4-.72.62-.09-.21-.14-.5-.08-.77.23-.15.42-.2.58-.2-.04-.29.08-.63.15-.96-.09.02-.19.05-.29.07-3.34.94-2.29,5.47,1.27,5.08ZM245.2,22.65c-.24.1-.51.25-.82.54,1.47-2.92.35-.46.82-.54ZM196.16,12.16c1.48-.25,3.13.02,4.2,0-.99.4-3.65-.18-4.33.18l.13-.17ZM173.34,14.7c-.47-.7-.38-1.63.09-2.04.12.49.04,1.43.4,1.61-.29-.06-.2.87.83,1.14.7-.17.94-.35,1.34-.48.42-.15.83-.28,1.47-.66.95.47-.57,1.22-1.89,1.62.1-.12.45-.29.07-.42-.86.27-1.85-.05-2.32-.76Z"/>
          <polygon class="cls-1" points="153.14 60.65 151.62 60.87 153.67 59.98 153.14 60.65"/>
          <path class="cls-1" d="M179.99,13.97l.58-.13s.07-.06.05-.09l.54-.04-.59.13c-.08.07-.31.1-.58.13l-1.23.27c.27-.18.8-.22,1.23-.27Z"/>
        </g>
      </g>
    </g>
  </g>
</svg>